<svg xmlns="http://www.w3.org/2000/svg" viewBox="0 0 500 500"><g id="freepik--background-complete--inject-4"><rect x="416.78" y="398.49" width="33.12" height="0.25" style="fill:#ebebeb"></rect><rect x="322.53" y="401.21" width="8.69" height="0.25" style="fill:#ebebeb"></rect><rect x="396.59" y="389.21" width="19.19" height="0.25" style="fill:#ebebeb"></rect><rect x="52.46" y="390.89" width="43.19" height="0.25" style="fill:#ebebeb"></rect><rect x="104.56" y="390.89" width="6.33" height="0.25" style="fill:#ebebeb"></rect><rect x="131.47" y="395.11" width="93.68" height="0.25" style="fill:#ebebeb"></rect><path d="M238.4,337.8H45.3a5.71,5.71,0,0,1-5.71-5.71V60.66A5.71,5.71,0,0,1,45.3,55H238.4a5.71,5.71,0,0,1,5.71,5.71V332.09A5.71,5.71,0,0,1,238.4,337.8ZM45.3,55.2a5.47,5.47,0,0,0-5.46,5.46V332.09a5.47,5.47,0,0,0,5.46,5.46H238.4a5.47,5.47,0,0,0,5.46-5.46V60.66a5.47,5.47,0,0,0-5.46-5.46Z" style="fill:#ebebeb"></path><path d="M454.7,337.8H261.6a5.71,5.71,0,0,1-5.71-5.71V60.66A5.71,5.71,0,0,1,261.6,55H454.7a5.71,5.71,0,0,1,5.71,5.71V332.09A5.71,5.71,0,0,1,454.7,337.8ZM261.6,55.2a5.47,5.47,0,0,0-5.46,5.46V332.09a5.47,5.47,0,0,0,5.46,5.46H454.7a5.47,5.47,0,0,0,5.46-5.46V60.66a5.47,5.47,0,0,0-5.46-5.46Z" style="fill:#ebebeb"></path><rect y="382.4" width="500" height="0.25" style="fill:#ebebeb"></rect><path d="M100.55,214l-.16-.63a7.31,7.31,0,0,0,4-3.24c1.17-2,1.32-4.66.46-7.83-2.8-10.22,2.63-16.23,7.94-21.07,5.71-5.2,1.53-12.32,1.48-12.39l.56-.34c0,.08,4.5,7.65-1.6,13.22-6.59,6-10.19,11.51-7.75,20.41.91,3.35.74,6.15-.53,8.34A7.83,7.83,0,0,1,100.55,214Z" style="fill:#ebebeb"></path><path d="M143.92,140.18c-2.85,14.09-16.57,29.75-29.07,27.23S95.78,145.12,98.63,131s15.29-23.46,27.79-20.94S146.76,126.09,143.92,140.18Z" style="fill:#f0f0f0"></path><path d="M131.59,117.6c7.09,5.11,9.68,13.79,8.15,22.19a1,1,0,0,0,1.89.38c1.64-9-1.14-18.52-8.75-24-1-.72-2.29.71-1.29,1.44Z" style="fill:#fafafa"></path><path d="M125.43,115a18.4,18.4,0,0,1,3.6,1.15c1.13.5,2-1.21.87-1.72a20.33,20.33,0,0,0-4.09-1.32,1,1,0,0,0-.38,1.89Z" style="fill:#fafafa"></path><path d="M117.17,165.86c-12.5-2.52-19.07-22.29-16.22-36.38a27.7,27.7,0,0,1,10.28-16.7A27.28,27.28,0,0,0,98.63,131c-2.85,14.09,3.71,33.85,16.22,36.38,4.83,1,9.84-.77,14.34-4.09C125.32,165.6,121.19,166.67,117.17,165.86Z" style="fill:#e6e6e6"></path><polygon points="114.85 167.41 111.83 169.41 116.31 170.31 114.85 167.41" style="fill:#e0e0e0"></polygon><path d="M283.56,204.05l-.33-.51a6.69,6.69,0,0,0,2.6-4c.44-2.13-.2-4.49-1.88-7-5.44-8.16-2.43-15,.81-20.82,3.5-6.24-2.25-11.27-2.31-11.32l.39-.45c.06.05,6.19,5.4,2.45,12.07-4,7.19-5.58,13.08-.84,20.19,1.78,2.67,2.45,5.18,2,7.48A7.28,7.28,0,0,1,283.56,204.05Z" style="fill:#ebebeb"></path><path d="M300.07,126.57c1.62,13.2-5.85,31-17.57,32.4s-23.26-14-24.87-27.2,6.57-25.08,18.29-26.51S298.45,113.36,300.07,126.57Z" style="fill:#f0f0f0"></path><path d="M282.65,110.34c7.71,2.42,12.53,9.28,13.64,17.1a.89.89,0,0,0,1.77-.21c-1.19-8.39-6.41-15.93-14.7-18.53-1.09-.34-1.8,1.3-.71,1.64Z" style="fill:#fafafa"></path><path d="M276.48,109.87a16.38,16.38,0,0,1,3.5,0c1.14.11,1.4-1.66.26-1.77a18.82,18.82,0,0,0-4,0,.89.89,0,0,0,.21,1.77Z" style="fill:#fafafa"></path><path d="M284.09,156.93c-11.72,1.44-23.26-14-24.87-27.2a25.56,25.56,0,0,1,4.15-17.67,25.24,25.24,0,0,0-5.74,19.71c1.61,13.2,13.15,28.63,24.87,27.2,4.53-.56,8.42-3.55,11.4-7.78C291.17,154.32,287.85,156.47,284.09,156.93Z" style="fill:#e6e6e6"></path><polygon points="282.5 158.97 280.44 161.61 284.64 161.09 282.5 158.97" style="fill:#e0e0e0"></polygon><path d="M348.59,172.56l-.2-.57a6.76,6.76,0,0,0,3.48-3.28c.93-2,.88-4.4-.16-7.26-3.34-9.22,1.22-15.17,5.76-20,4.88-5.23.49-11.49.45-11.55l.49-.35c0,.07,4.72,6.72-.5,12.31-5.63,6-8.54,11.37-5.63,19.41,1.09,3,1.14,5.62.13,7.73A7.23,7.23,0,0,1,348.59,172.56Z" style="fill:#ebebeb"></path><path d="M383.1,101.25c-1.58,13.21-13.07,28.68-24.8,27.28s-19.24-19.14-17.67-32.35S353,73.4,364.72,74.8,384.67,88,383.1,101.25Z" style="fill:#f5f5f5"></path><path d="M370.05,81.34c6.91,4.19,9.95,12,9.16,19.86a.89.89,0,0,0,1.77.21c.85-8.43-2.43-17-9.86-21.49-1-.59-2.05.82-1.07,1.42Z" style="fill:#fafafa"></path><path d="M364.17,79.41a16.49,16.49,0,0,1,3.4.8c1.08.38,1.76-1.27.68-1.65a19.12,19.12,0,0,0-3.87-.92.89.89,0,0,0-.21,1.77Z" style="fill:#fafafa"></path><path d="M360.33,126.93c-11.72-1.4-19.24-19.14-17.67-32.35a25.63,25.63,0,0,1,8.25-16.17,25.25,25.25,0,0,0-10.28,17.77c-1.57,13.21,5.95,30.95,17.67,32.35,4.53.54,9-1.44,12.93-4.84C367.83,126.09,364.1,127.38,360.33,126.93Z" style="fill:#ebebeb"></path><polygon points="358.3 128.53 355.67 130.6 359.87 131.1 358.3 128.53" style="fill:#e0e0e0"></polygon><path d="M181,246.53l-.23-.55a6.66,6.66,0,0,0,3.24-3.42c.8-2,.61-4.37-.57-7.12-3.8-8.86.33-14.95,4.51-20,4.49-5.4-.17-11.29-.22-11.35l.46-.37c.05.06,5,6.33.21,12.1-5.18,6.24-7.73,11.65-4.41,19.37,1.24,2.9,1.43,5.45.57,7.58A7.22,7.22,0,0,1,181,246.53Z" style="fill:#ebebeb"></path><path d="M210.85,174.58c-.8,13-11.19,28.89-22.78,28.18s-20-17.69-19.18-30.74,10.84-23.06,22.42-22.36S211.65,161.52,210.85,174.58Z" style="fill:#ebebeb"></path><path d="M196.91,155.78c7,3.72,10.45,11.21,10.13,19a.88.88,0,0,0,1.75.11c.34-8.32-3.36-16.54-10.9-20.54-1-.52-2,.93-1,1.46Z" style="fill:#fafafa"></path><path d="M191,154.22a16.83,16.83,0,0,1,3.39.59c1.08.32,1.65-1.34.57-1.65a18.61,18.61,0,0,0-3.85-.68.87.87,0,0,0-.11,1.74Z" style="fill:#fafafa"></path><path d="M190,201.08c-11.58-.71-20-17.69-19.18-30.75A25.22,25.22,0,0,1,178,154a24.86,24.86,0,0,0-9.07,18c-.8,13,7.6,30,19.18,30.74,4.48.27,8.78-1.93,12.41-5.48A15.51,15.51,0,0,1,190,201.08Z" style="fill:#e0e0e0"></path><polygon points="188.07 202.76 185.61 204.94 189.76 205.2 188.07 202.76" style="fill:#e0e0e0"></polygon><path d="M417.75,239.91l-.32-.49a6.61,6.61,0,0,0,2.52-3.89c.42-2.06-.19-4.34-1.82-6.78-5.27-7.9-2.36-14.54.78-20.14,3.39-6-2.18-10.91-2.24-11l.38-.45c.06,0,6,5.23,2.37,11.68-3.9,7-5.4,12.66-.81,19.53,1.72,2.59,2.37,5,1.91,7.24A7.08,7.08,0,0,1,417.75,239.91Z" style="fill:#ebebeb"></path><path d="M433.72,165c1.57,12.77-5.66,30-17,31.35s-22.5-13.55-24.06-26.32,6.36-24.26,17.7-25.65S432.16,152.17,433.72,165Z" style="fill:#ebebeb"></path><path d="M416.87,149.25c7.46,2.34,12.12,9,13.19,16.55a.86.86,0,0,0,1.71-.21c-1.15-8.12-6.2-15.41-14.22-17.92-1.05-.33-1.74,1.25-.68,1.58Z" style="fill:#fafafa"></path><path d="M410.9,148.8a16,16,0,0,1,3.39,0c1.1.11,1.35-1.59.25-1.7a17.7,17.7,0,0,0-3.85,0,.86.86,0,0,0,.21,1.71Z" style="fill:#fafafa"></path><path d="M418.26,194.33c-11.34,1.39-22.5-13.55-24.06-26.32a24.83,24.83,0,0,1,4-17.1A24.46,24.46,0,0,0,392.66,170c1.56,12.77,12.72,27.71,24.06,26.32,4.38-.54,8.15-3.44,11-7.53C425.11,191.8,421.9,193.88,418.26,194.33Z" style="fill:#e0e0e0"></path><polygon points="416.72 196.3 414.73 198.85 418.79 198.35 416.72 196.3" style="fill:#e0e0e0"></polygon><polygon points="94.8 382.29 89.33 382.29 89.33 296.83 97.9 296.83 94.8 382.29" style="fill:#f0f0f0"></polygon><path d="M89.33,318.23c.34,0,.67-.06,1-.06a14.69,14.69,0,0,1,6.71,1.89l.85-23.23H89.33Z" style="fill:#e0e0e0"></path><polygon points="73.06 382.29 67.6 382.29 67.6 296.83 76.17 296.83 73.06 382.29" style="fill:#f0f0f0"></polygon><path d="M67.6,327.49c2.56.4,5-.52,7.52-1.92l1-28.74H67.6Z" style="fill:#e0e0e0"></path><polygon points="224.1 382.29 229.57 382.29 229.57 296.83 221 296.83 224.1 382.29" style="fill:#f0f0f0"></polygon><path d="M229.57,318.23c-.34,0-.67-.06-1-.06a14.69,14.69,0,0,0-6.71,1.89L221,296.83h8.57Z" style="fill:#e0e0e0"></path><polygon points="245.83 382.29 251.3 382.29 251.3 296.83 242.73 296.83 245.83 382.29" style="fill:#f0f0f0"></polygon><path d="M251.3,327.49c-2.56.4-5-.52-7.52-1.92l-1.05-28.74h8.57Z" style="fill:#e0e0e0"></path><path d="M249.55,280.13c15.9,5.91,20.24,31.29,0,34.52-7.59,1.22-14.56-9.31-22.75-9.31s-14.55,9.31-22.74,9.31-14.56-9.31-22.74-9.31-14.56,9.31-22.75,9.31-14.55-9.31-22.74-9.31-14.56,9.31-22.74,9.31-14.56-9.31-22.75-9.31-15.15,10.53-22.74,9.31c-20.24-3.23-17.24-29.23,0-34.52Z" style="fill:#f0f0f0"></path><path d="M167.17,243.59V232.22a1.6,1.6,0,0,0-1.59-1.6H164a1.6,1.6,0,0,0-1.59,1.6v11.37l-2,3.4a11.66,11.66,0,0,0-1.67,6v25.44a2.09,2.09,0,0,0,2.09,2.08h8a2.08,2.08,0,0,0,2.08-2.08V253a11.65,11.65,0,0,0-1.66-6Z" style="fill:#e0e0e0"></path><path d="M162.57,262.93c0,9,.17,16.36-.45,16.36S161,272,161,262.93s1.18-16.36,1.8-16.36S162.57,253.89,162.57,262.93Z" style="fill:#f5f5f5"></path><path d="M164.19,238c0,3.18-.33,5.76-.72,5.76s-.11-2.58-.11-5.76.33-5.76.72-5.76S164.19,234.85,164.19,238Z" style="fill:#f5f5f5"></path><path d="M117.3,247.79V237.71a1.41,1.41,0,0,0-1.41-1.41h-1.37a1.41,1.41,0,0,0-1.41,1.41v10.08l-1.81,3a10.41,10.41,0,0,0-1.47,5.33v22.55a1.84,1.84,0,0,0,1.84,1.84h7.07a1.84,1.84,0,0,0,1.85-1.84V256.13a10.32,10.32,0,0,0-1.48-5.33Z" style="fill:#e0e0e0"></path><path d="M113.23,264.93c0,8,.15,14.5-.4,14.5s-1-6.49-1-14.5,1-14.5,1.6-14.5S113.23,256.92,113.23,264.93Z" style="fill:#f5f5f5"></path><path d="M114.66,242.87c0,2.82-.29,5.1-.64,5.1s-.09-2.28-.09-5.1.29-5.11.64-5.11S114.66,240.05,114.66,242.87Z" style="fill:#f5f5f5"></path><path d="M102.19,239.3V226.6a1.78,1.78,0,0,0-1.78-1.77H98.68a1.78,1.78,0,0,0-1.78,1.77v12.7l-2.27,3.79a13,13,0,0,0-1.86,6.71v28.4a2.32,2.32,0,0,0,2.32,2.32H104a2.32,2.32,0,0,0,2.32-2.32V249.8a13,13,0,0,0-1.86-6.71Z" style="fill:#e0e0e0"></path><path d="M97.05,260.89c0,10.08.19,18.25-.5,18.25S95.3,271,95.3,260.89s1.31-18.26,2-18.26S97.05,250.8,97.05,260.89Z" style="fill:#f5f5f5"></path><path d="M98.86,233.09c0,3.56-.36,6.44-.81,6.44s-.11-2.88-.11-6.44.36-6.43.8-6.43S98.86,229.54,98.86,233.09Z" style="fill:#f5f5f5"></path><path d="M181.54,275.81v-9.69a2.07,2.07,0,0,1,1.4-2,8.09,8.09,0,0,0,5.41-7.75,8.28,8.28,0,0,0-2-5.47H175a8.34,8.34,0,0,0-2,5.47,8.09,8.09,0,0,0,5.42,7.75,2.08,2.08,0,0,1,1.39,2v9.69a2.1,2.1,0,0,1-1.76,2.08c-1.74.29-2.93.86-2.93,1.51,0,.94,2.49,1.12,5.57,1.12s5.57-.18,5.57-1.12c0-.65-1.18-1.22-2.93-1.51A2.1,2.1,0,0,1,181.54,275.81Z" style="fill:#f5f5f5"></path><path d="M174.59,255.69c0,.23-.05.46-.05.69a6.47,6.47,0,0,0,4.33,6.26,3.55,3.55,0,0,1,1.79,1.31,3.59,3.59,0,0,1,1.79-1.31,6.47,6.47,0,0,0,4.33-6.26c0-.23,0-.46-.05-.69Z" style="fill:#e0e0e0"></path><path d="M81.83,275.81v-9.69a2.07,2.07,0,0,1,1.4-2,8.09,8.09,0,0,0,5.41-7.75,8.28,8.28,0,0,0-2-5.47H75.29a8.33,8.33,0,0,0-2,5.47,8.08,8.08,0,0,0,5.41,7.75,2.08,2.08,0,0,1,1.39,2v9.69a2.1,2.1,0,0,1-1.76,2.08c-1.74.29-2.93.86-2.93,1.51,0,.94,2.5,1.12,5.57,1.12s5.57-.18,5.57-1.12c0-.65-1.18-1.22-2.93-1.51A2.11,2.11,0,0,1,81.83,275.81Z" style="fill:#ebebeb"></path><path d="M408.57,263.39a490.6,490.6,0,0,0-6.14,54.2l-2.87-.24a496.92,496.92,0,0,1,6.21-54.56c1.72-11.65,13.35-20.75,24.52-20A17.34,17.34,0,0,1,443.13,250a18.68,18.68,0,0,1,2.93,14.8,447.91,447.91,0,0,0-6.29,49.23l-2.85-.2a449.61,449.61,0,0,1,6.33-49.59,15.77,15.77,0,0,0-2.43-12.52,14.86,14.86,0,0,0-1.12-1.35,440.27,440.27,0,0,0-9.26,64.54l-2.86-.21a436.55,436.55,0,0,1,9.67-66.42,14.89,14.89,0,0,0-6-2.35,443.73,443.73,0,0,0-10.12,69.86l-2.86-.21a446.27,446.27,0,0,1,10.09-69.88,18.61,18.61,0,0,0-6.94,1.5,454.44,454.44,0,0,0-9.63,69.47l-2.86-.22A457.4,457.4,0,0,1,418,249,22.29,22.29,0,0,0,408.57,263.39Z" style="fill:#e0e0e0"></path><path d="M374,308.53h65.81a0,0,0,0,1,0,0v.41a6.59,6.59,0,0,1-6.59,6.59H380.61a6.59,6.59,0,0,1-6.59-6.59v-.41A0,0,0,0,1,374,308.53Z" transform="translate(813.86 624.06) rotate(180)" style="fill:#f0f0f0"></path><polygon points="437.61 382.29 441.1 382.29 438.24 315.53 433.79 315.53 437.61 382.29" style="fill:#e0e0e0"></polygon><polygon points="414.24 382.29 417.73 382.29 415.83 315.53 411.38 315.53 414.24 382.29" style="fill:#e0e0e0"></polygon><polygon points="396.12 382.29 399.61 382.29 402.47 315.53 398.02 315.53 396.12 382.29" style="fill:#e0e0e0"></polygon><polygon points="372.75 382.29 376.24 382.29 380.06 315.53 375.61 315.53 372.75 382.29" style="fill:#e0e0e0"></polygon><rect x="371.15" y="312.98" width="39.11" height="5.09" transform="translate(781.41 631.05) rotate(180)" style="fill:#ebebeb"></rect><rect x="410.26" y="312.98" width="32.44" height="5.09" transform="translate(852.96 631.05) rotate(180)" style="fill:#f5f5f5"></rect><path d="M309.84,263.39a493,493,0,0,0-6.15,54.2l-2.86-.24a496.9,496.9,0,0,1,6.2-54.56c1.72-11.65,13.36-20.75,24.53-20A17.3,17.3,0,0,1,344.39,250a18.68,18.68,0,0,1,2.94,14.8A445.51,445.51,0,0,0,341,314.06l-2.86-.2a452.05,452.05,0,0,1,6.34-49.59,15.77,15.77,0,0,0-2.44-12.52A12.16,12.16,0,0,0,341,250.4a443,443,0,0,0-9.26,64.54l-2.85-.21a434.07,434.07,0,0,1,9.67-66.42,15,15,0,0,0-6-2.35,442.56,442.56,0,0,0-10.12,69.86l-2.86-.21a446.27,446.27,0,0,1,10.09-69.88,18.61,18.61,0,0,0-6.94,1.5A454.44,454.44,0,0,0,313,316.7l-2.86-.22A458.72,458.72,0,0,1,319.29,249,22.32,22.32,0,0,0,309.84,263.39Z" style="fill:#e0e0e0"></path><path d="M275.29,308.53H341.1a0,0,0,0,1,0,0v.41a6.59,6.59,0,0,1-6.59,6.59H281.88a6.59,6.59,0,0,1-6.59-6.59v-.41A0,0,0,0,1,275.29,308.53Z" transform="translate(616.39 624.06) rotate(180)" style="fill:#f0f0f0"></path><polygon points="338.87 382.29 342.37 382.29 339.51 315.53 335.06 315.53 338.87 382.29" style="fill:#e0e0e0"></polygon><polygon points="315.5 382.29 319 382.29 317.09 315.53 312.64 315.53 315.5 382.29" style="fill:#e0e0e0"></polygon><polygon points="297.38 382.29 300.88 382.29 303.74 315.53 299.29 315.53 297.38 382.29" style="fill:#e0e0e0"></polygon><polygon points="274.01 382.29 277.51 382.29 281.33 315.53 276.88 315.53 274.01 382.29" style="fill:#e0e0e0"></polygon><rect x="272.42" y="312.98" width="39.11" height="5.09" transform="translate(583.95 631.05) rotate(180)" style="fill:#ebebeb"></rect><rect x="311.53" y="312.98" width="32.44" height="5.09" transform="translate(655.49 631.05) rotate(180)" style="fill:#f5f5f5"></rect></g><g id="freepik--Shadow--inject-4"><ellipse id="freepik--path--inject-4" cx="250" cy="412.39" rx="193.89" ry="11.32" style="fill:#f5f5f5"></ellipse></g><g id="freepik--Lamp--inject-4"><path d="M217.88,79.82l2.4-1.09v0a.91.91,0,0,0-1.21-.45l-.74.33a.91.91,0,0,0-.45,1.21Z" style="fill:#263238"></path><path d="M185.22,92.48l2.44-1h0a.93.93,0,0,0-1.21-.53l-.71.29a.92.92,0,0,0-.52,1.21Z" style="fill:#263238"></path><path d="M146.75,102.14l2.61-.42h0a.93.93,0,0,0-1.07-.77l-.75.12a.94.94,0,0,0-.78,1.07Z" style="fill:#263238"></path><path d="M109.56,106.08l2.63.06h0a.94.94,0,0,0-.92-1h-.76a.92.92,0,0,0-1,.91Z" style="fill:#263238"></path><path d="M219,83.1c.13-.73-.91-2.86-.91-2.86l2.4-1.08A8.7,8.7,0,0,0,222,81.74c1.17.72,2.4.86,3,2.18a3.49,3.49,0,0,1-6.36,2.87C218,85.46,218.75,84.45,219,83.1Z" style="fill:#FFFFFF"></path><path d="M186.17,95.81c.16-.73-.78-2.9-.78-2.9l2.45-1a8.61,8.61,0,0,0,1.41,2.64c1.14.78,2.35,1,2.89,2.32a3.48,3.48,0,1,1-6.47,2.58C185.13,98.13,185.88,97.15,186.17,95.81Z" style="fill:#FFFFFF"></path><path d="M147,105.6a8.63,8.63,0,0,0-.14-3l2.6-.41s.3,2.34.81,2.88c.93,1,2.08,1.46,2.31,2.9a3.48,3.48,0,1,1-6.88,1.1C145.44,107.63,146.39,106.85,147,105.6Z" style="fill:#FFFFFF"></path><path d="M109.14,109.52c.43-.61.4-3,.4-3l2.64,0a8.62,8.62,0,0,0,.27,3c.75,1.16,1.79,1.81,1.76,3.26a3.48,3.48,0,1,1-7-.15C107.28,111.25,108.35,110.64,109.14,109.52Z" style="fill:#FFFFFF"></path><path d="M73.31,107.49a8.55,8.55,0,0,0,.86-2.87l2.59.46a8.62,8.62,0,0,0-.18,3c.55,1.25,1.49,2.06,1.23,3.49A3.48,3.48,0,0,1,71,110.35C71.21,108.91,72.36,108.48,73.31,107.49Z" style="fill:#FFFFFF"></path><g style="opacity:0.8"><path d="M219,83.1c.13-.73-.91-2.86-.91-2.86l2.4-1.08A8.7,8.7,0,0,0,222,81.74c1.17.72,2.4.86,3,2.18a3.49,3.49,0,0,1-6.36,2.87C218,85.46,218.75,84.45,219,83.1Z" style="fill:#fff"></path><path d="M186.17,95.81c.16-.73-.78-2.9-.78-2.9l2.45-1a8.61,8.61,0,0,0,1.41,2.64c1.14.78,2.35,1,2.89,2.32a3.48,3.48,0,1,1-6.47,2.58C185.13,98.13,185.88,97.15,186.17,95.81Z" style="fill:#fff"></path><path d="M147,105.6a8.63,8.63,0,0,0-.14-3l2.6-.41s.3,2.34.81,2.88c.93,1,2.08,1.46,2.31,2.9a3.48,3.48,0,1,1-6.88,1.1C145.44,107.63,146.39,106.85,147,105.6Z" style="fill:#fff"></path><path d="M109.14,109.52c.43-.61.4-3,.4-3l2.64,0a8.62,8.62,0,0,0,.27,3c.75,1.16,1.79,1.81,1.76,3.26a3.48,3.48,0,1,1-7-.15C107.28,111.25,108.35,110.64,109.14,109.52Z" style="fill:#fff"></path><path d="M73.31,107.49a8.55,8.55,0,0,0,.86-2.87l2.59.46a8.62,8.62,0,0,0-.18,3c.55,1.25,1.49,2.06,1.23,3.49A3.48,3.48,0,0,1,71,110.35C71.21,108.91,72.36,108.48,73.31,107.49Z" style="fill:#fff"></path></g><path d="M74.25,104.15l2.59.46h0a.92.92,0,0,0-.75-1.08l-.76-.13a.93.93,0,0,0-1.08.75Z" style="fill:#263238"></path><path d="M39.09,95.09C129.45,120,217,79.33,240.65,67l0,.07C136.85,124.21,55.49,101.06,39,95.35Z" style="fill:#FFFFFF"></path><path d="M39.09,95.09C129.45,120,217,79.33,240.65,67l0,.07C136.85,124.21,55.49,101.06,39,95.35Z" style="fill:#fff;opacity:0.5"></path><path d="M278.74,79.82l-2.4-1.09v0a.9.9,0,0,1,1.2-.45l.74.33a.92.92,0,0,1,.46,1.21Z" style="fill:#263238"></path><path d="M311.4,92.48l-2.45-1h0a.94.94,0,0,1,1.22-.53l.71.29a.93.93,0,0,1,.52,1.21Z" style="fill:#263238"></path><path d="M349.86,102.14l-2.6-.42h0a.93.93,0,0,1,1.07-.77l.76.12a.93.93,0,0,1,.77,1.07Z" style="fill:#263238"></path><path d="M387.06,106.08l-2.63.06h0a.92.92,0,0,1,.91-1h.77a.92.92,0,0,1,.95.91Z" style="fill:#263238"></path><path d="M277.63,83.1a8.73,8.73,0,0,1,.92-2.86l-2.4-1.08a8.78,8.78,0,0,1-1.54,2.58c-1.17.72-2.39.86-3,2.18A3.48,3.48,0,1,0,278,86.79C278.57,85.46,277.86,84.45,277.63,83.1Z" style="fill:#FFFFFF"></path><path d="M310.44,95.81c-.16-.73.79-2.9.79-2.9l-2.45-1s-.8,2.22-1.42,2.64c-1.13.78-2.35,1-2.89,2.32A3.49,3.49,0,0,0,311,99.48C311.48,98.13,310.73,97.15,310.44,95.81Z" style="fill:#FFFFFF"></path><path d="M349.65,105.6a8.63,8.63,0,0,1,.14-3l-2.6-.41s-.3,2.34-.81,2.88c-.94,1-2.09,1.46-2.32,2.9a3.48,3.48,0,1,0,6.88,1.1C351.17,107.63,350.22,106.85,349.65,105.6Z" style="fill:#FFFFFF"></path><path d="M387.47,109.52a8.76,8.76,0,0,1-.4-3l-2.63,0a8.68,8.68,0,0,1-.28,3c-.74,1.16-1.79,1.81-1.76,3.26a3.49,3.49,0,1,0,7-.15C389.34,111.25,388.26,110.64,387.47,109.52Z" style="fill:#FFFFFF"></path><path d="M423.3,107.49c-.52-.54-.85-2.87-.85-2.87l-2.6.46s.49,2.31.19,3c-.56,1.25-1.49,2.06-1.24,3.49a3.48,3.48,0,0,0,6.86-1.21C425.41,108.91,424.25,108.48,423.3,107.49Z" style="fill:#FFFFFF"></path><g style="opacity:0.8"><path d="M277.63,83.1a8.73,8.73,0,0,1,.92-2.86l-2.4-1.08a8.78,8.78,0,0,1-1.54,2.58c-1.17.72-2.39.86-3,2.18A3.48,3.48,0,1,0,278,86.79C278.57,85.46,277.86,84.45,277.63,83.1Z" style="fill:#fff"></path><path d="M310.44,95.81c-.16-.73.79-2.9.79-2.9l-2.45-1s-.8,2.22-1.42,2.64c-1.13.78-2.35,1-2.89,2.32A3.49,3.49,0,0,0,311,99.48C311.48,98.13,310.73,97.15,310.44,95.81Z" style="fill:#fff"></path><path d="M349.65,105.6a8.63,8.63,0,0,1,.14-3l-2.6-.41s-.3,2.34-.81,2.88c-.94,1-2.09,1.46-2.32,2.9a3.48,3.48,0,1,0,6.88,1.1C351.17,107.63,350.22,106.85,349.65,105.6Z" style="fill:#fff"></path><path d="M387.47,109.52a8.76,8.76,0,0,1-.4-3l-2.63,0a8.68,8.68,0,0,1-.28,3c-.74,1.16-1.79,1.81-1.76,3.26a3.49,3.49,0,1,0,7-.15C389.34,111.25,388.26,110.64,387.47,109.52Z" style="fill:#fff"></path><path d="M423.3,107.49c-.52-.54-.85-2.87-.85-2.87l-2.6.46s.49,2.31.19,3c-.56,1.25-1.49,2.06-1.24,3.49a3.48,3.48,0,0,0,6.86-1.21C425.41,108.91,424.25,108.48,423.3,107.49Z" style="fill:#fff"></path></g><path d="M422.36,104.15l-2.59.46h0a.94.94,0,0,1,.76-1.08l.75-.13a.93.93,0,0,1,1.08.75Z" style="fill:#263238"></path><path d="M457.52,95.09C367.16,120,279.59,79.33,256,67l0,.07c103.83,57.19,185.19,34,201.66,28.33Z" style="fill:#FFFFFF"></path><path d="M457.52,95.09C367.16,120,279.59,79.33,256,67l0,.07c103.83,57.19,185.19,34,201.66,28.33Z" style="fill:#fff;opacity:0.5"></path></g><g id="freepik--character-4--inject-4"><path d="M359.88,166.89a11.13,11.13,0,0,0-5.52,2.64s-1.53-3.91.6-6.4C355,163.13,358,162.42,359.88,166.89Z" style="fill:#FFFFFF"></path><path d="M374.92,173.79s2.91,8.68-1.76,15.9-2,7.36-2,7.36-4.32.7-4.62-3.3,4.62-12.26,4.62-12.26l-1.26-8.4,3.26-1Z" style="fill:#263238"></path><path d="M366.49,167.41s-12.66-2.86-14.3,5.39-.43,11.55-2.63,14.2c0,0,5.08-1.55,6.56-8.3S366.49,167.41,366.49,167.41Z" style="fill:#263238"></path><path d="M406,194.32v-7.78a1.67,1.67,0,0,1,1.13-1.59,6.49,6.49,0,0,0,4.34-6.22,6.65,6.65,0,0,0-1.63-4.39h-9.08a6.65,6.65,0,0,0-1.63,4.39,6.49,6.49,0,0,0,4.34,6.22,1.66,1.66,0,0,1,1.12,1.59v7.78A1.68,1.68,0,0,1,403.2,196c-1.4.24-2.35.69-2.35,1.21,0,.76,2,.9,4.47.9s4.47-.14,4.47-.9c0-.52-1-1-2.35-1.21A1.69,1.69,0,0,1,406,194.32Z" style="fill:#FFFFFF"></path><path d="M406,194.32v-7.78a1.67,1.67,0,0,1,1.13-1.59,6.49,6.49,0,0,0,4.34-6.22,6.65,6.65,0,0,0-1.63-4.39h-9.08a6.65,6.65,0,0,0-1.63,4.39,6.49,6.49,0,0,0,4.34,6.22,1.66,1.66,0,0,1,1.12,1.59v7.78A1.68,1.68,0,0,1,403.2,196c-1.4.24-2.35.69-2.35,1.21,0,.76,2,.9,4.47.9s4.47-.14,4.47-.9c0-.52-1-1-2.35-1.21A1.69,1.69,0,0,1,406,194.32Z" style="fill:#fff;opacity:0.6000000000000001"></path><path d="M400.45,178.17a5.27,5.27,0,0,0,0,.56,5.18,5.18,0,0,0,3.47,5,2.86,2.86,0,0,1,1.44,1.06,2.88,2.88,0,0,1,1.43-1.06,5.19,5.19,0,0,0,3.48-5,5.27,5.27,0,0,0,0-.56Z" style="fill:#FFFFFF"></path><path d="M409.55,182.24a6.1,6.1,0,0,0,.05-6.92c-.24-.37-.84,0-.59.34a5.46,5.46,0,0,1-.05,6.23c-.26.36.34.71.59.35Z" style="fill:#FFFFFF"></path><g style="opacity:0.9"><path d="M409.55,182.24a6.1,6.1,0,0,0,.05-6.92c-.24-.37-.84,0-.59.34a5.46,5.46,0,0,1-.05,6.23c-.26.36.34.71.59.35Z" style="fill:#fff"></path></g><path d="M383.79,205.81c1.78.55,3.8,1.12,5.74,1.59s3.94.94,5.92,1.31a83.65,83.65,0,0,0,11.93,1.42l1.27.05c.06,0,0,0,0,.08s.32-.18.56-.83a16.67,16.67,0,0,0,.83-5.18,52.78,52.78,0,0,0-.12-6c-.11-1.74-.27-3.52-.46-5.25a1,1,0,0,1,.75-1.07l1.8-.43a1,1,0,0,1,1.18.66,56.19,56.19,0,0,1,2.47,12,30.72,30.72,0,0,1,.08,3.48,15.52,15.52,0,0,1-.59,3.81,9.33,9.33,0,0,1-.92,2.16,6.71,6.71,0,0,1-2,2.14,6.4,6.4,0,0,1-3,1.09c-.59.05-.76,0-1.05.05l-.84,0a70.26,70.26,0,0,1-13.15-1c-2.15-.37-4.3-.76-6.42-1.28-1.06-.27-2.12-.54-3.17-.84s-2.07-.61-3.22-1Z" style="fill:#ffc3bd"></path><path d="M378,203.62c2.22-2.11,14.52,3.53,14.52,3.53l-.53,9s-14.62,0-16.16-3.64C374.25,208.72,374.76,206.69,378,203.62Z" style="fill:#FFFFFF"></path><path d="M411.76,190.15l-6.44-4,.77,7.29s4.27,1.79,6.59-.1l.08-1.34A2.07,2.07,0,0,0,411.76,190.15Z" style="fill:#ffc3bd"></path><polygon points="399.97 185.9 400.69 191.35 406.08 193.48 405.33 186.19 399.97 185.9" style="fill:#ffc3bd"></polygon><path d="M302.21,205.21,298,202.7l-4.11.08s4.1,6.13,6.84,4.9C300.73,207.68,302.74,205.76,302.21,205.21Z" style="fill:#ffc3bd"></path><path d="M291.51,204.06l-1.17,1.18h4.39L298,202.7h-3.22A4.62,4.62,0,0,0,291.51,204.06Z" style="fill:#ffc3bd"></path><polygon points="357.83 409.97 350.64 409.97 350.72 393.33 357.9 393.33 357.83 409.97" style="fill:#ffc3bd"></polygon><polygon points="425.22 389.65 418.85 393.56 408.97 380.86 415.34 376.95 425.22 389.65" style="fill:#ffc3bd"></polygon><path d="M417.5,392.81l6.51-5.34a.58.58,0,0,1,.76,0l4.55,4.18a1.17,1.17,0,0,1-.17,1.72c-2.3,1.83-3.49,2.6-6.36,4.95-1.76,1.45-4.2,3.73-6.63,5.72s-4.35-.13-3.49-1.16c3.82-4.63,3.54-6.47,4.12-8.92A2.08,2.08,0,0,1,417.5,392.81Z" style="fill:#263238"></path><path d="M350,409.14h8.07a.51.51,0,0,1,.53.49L359,416a1.28,1.28,0,0,1-1.26,1.28c-2.81-.05-4.15-.21-7.7-.21-2.18,0-8.47.22-11.49.22s-2.91-3-1.63-3.25c5.73-1.21,9.85-2.88,11.88-4.47A2,2,0,0,1,350,409.14Z" style="fill:#263238"></path><g style="opacity:0.2"><polygon points="350.72 393.34 350.68 401.91 357.87 401.91 357.91 393.34 350.72 393.34"></polygon><polygon points="415.35 376.95 408.97 380.86 414.07 387.4 420.44 383.5 415.35 376.95"></polygon></g><path d="M344.37,210.28c.25,5,1.76,15.92,7.35,39.38l29.2-2.12c-1.36-11.85-1.9-19.17,2-44a87.11,87.11,0,0,0-12.51-.73,92.79,92.79,0,0,0-13.26,1c-3,.5-6.38,1.09-8.83,1.53A4.8,4.8,0,0,0,344.37,210.28Z" style="fill:#FFFFFF"></path><path d="M368,188c-.53,4.32-.8,12.2,2.4,14.83,0,0-.86,4.41-8.78,5-8.72.63-4.48-4-4.48-4,4.67-1.49,4.29-5,3.22-8.26Z" style="fill:#ffc3bd"></path><path d="M364.89,191.07l-4.51,4.46a15.55,15.55,0,0,1,.58,2.33c1.79-.4,4.15-2.57,4.2-4.49A6.3,6.3,0,0,0,364.89,191.07Z" style="opacity:0.2"></path><path d="M372.88,180.8c-1.63,7-2.17,9.94-6.34,12.95-6.28,4.52-14.48,1-15-6.32-.43-6.58,2.32-16.87,9.68-18.49A9.75,9.75,0,0,1,372.88,180.8Z" style="fill:#ffc3bd"></path><path d="M351.71,249.58s-6.5,55.6-6.35,77.41c.16,22.69,3.93,73.26,3.93,73.26H359s3.08-50.44,4.27-72.82c1.3-24.4,9.88-79.4,9.88-79.4Z" style="fill:#263238"></path><polygon points="359.81 400.6 348.41 400.6 347.9 396.97 360.7 396.52 359.81 400.6" style="fill:#263238"></polygon><path d="M364.14,262.4c-7.4,14.89-2,40.7.36,50.28,1.52-14.75,4-32.82,5.89-46.1C369.41,259.22,367.56,255.53,364.14,262.4Z" style="opacity:0.4"></path><path d="M359.45,249s5.78,56.89,10.52,75c5.62,21.44,41.78,63,41.78,63l8.68-5.32S393.38,335.27,389,324.08c-9.34-23.89-.49-61.13-8-76.61Z" style="fill:#263238"></path><polygon points="421.68 381.44 410.9 388.05 407.95 385.55 420.33 377.23 421.68 381.44" style="fill:#263238"></polygon><path d="M360.88,180.75c-.1.57-.48,1-.86.92s-.6-.58-.5-1.15.48-1,.86-.92S361,180.18,360.88,180.75Z" style="fill:#263238"></path><path d="M354.4,179.64c-.1.58-.48,1-.86.92s-.6-.58-.5-1.15.48-1,.86-.92S354.5,179.07,354.4,179.64Z" style="fill:#263238"></path><path d="M354.06,178.55l-1.31-.63S353.27,179.11,354.06,178.55Z" style="fill:#263238"></path><path d="M356.68,181a15.59,15.59,0,0,1-2.66,3.31,2.5,2.5,0,0,0,2,.73Z" style="fill:#ed847e"></path><path d="M358.74,187.84a6.55,6.55,0,0,1-.86-.08.18.18,0,0,1-.14-.2.17.17,0,0,1,.2-.14,4.59,4.59,0,0,0,4-1.14.17.17,0,1,1,.25.23A4.79,4.79,0,0,1,358.74,187.84Z" style="fill:#263238"></path><path d="M363.7,179.87a.34.34,0,0,1-.32-.24,4,4,0,0,0-2.41-2.16.34.34,0,0,1,.21-.65,4.7,4.7,0,0,1,2.86,2.61.35.35,0,0,1-.23.43Z" style="fill:#263238"></path><path d="M353,176.32a.36.36,0,0,1-.29-.17.35.35,0,0,1,.13-.47,3.39,3.39,0,0,1,3.11-.21.35.35,0,0,1,.15.46.34.34,0,0,1-.46.15h0a2.71,2.71,0,0,0-2.46.19A.41.41,0,0,1,353,176.32Z" style="fill:#263238"></path><path d="M343.77,215.9s-15.31,6.15-19.46,5.29c0,0-2.2.07-6.18-1.86-1.93-.72-17.65-11-17.4-11.65l.52-1.26a1.26,1.26,0,0,1,1.52-.74c3.47,1,16.59,7.19,18.45,7.71,6.75,1.6,22.1-4.85,22.1-4.85Z" style="fill:#ffc3bd"></path><path d="M349.5,205.64c-2.69-1.46-15.41,6-15.41,6l3.87,7.81s9.5-1.35,11.33-4.89S352.58,207.31,349.5,205.64Z" style="fill:#FFFFFF"></path><path d="M360.54,179.66l-1.31-.64S359.75,180.22,360.54,179.66Z" style="fill:#263238"></path><path d="M351.72,249.66l29.2-2.12a105.71,105.71,0,0,1-.4-25.85c-4-1.54-4.55-8.59-7.37-9.61-3.72-1.36-9.75,6.46-13.7,6.24-2.48-.14-5.46-4.65-7.91-4.27s-5.62,7.93-5.62,7.93C347,228.29,348.74,237.17,351.72,249.66Z" style="fill:#263238"></path><path d="M351.43,214.45s-.7-5.85,2.18-10.08l.45-.09a17.57,17.57,0,0,0-2.19,10.17Z" style="fill:#263238"></path><path d="M372.09,212.4s-.59-5.53.73-9.7l.41.05s-1.08,3.36-.69,9.65Z" style="fill:#263238"></path><path d="M373.64,202.2s.68,19.06-25.56,50l4.51,5.81s25.08-26,28.83-54.81Z" style="fill:#FFFFFF"></path><path d="M373.64,202.2s.68,19.06-25.56,50l4.51,5.81s25.08-26,28.83-54.81Z" style="fill:#fff;opacity:0.6000000000000001"></path><path d="M348,256.54s-5.71,6-6.73,19.64L346,274l4.54,3.38a34.8,34.8,0,0,1,1.39-20.63Z" style="fill:#FFFFFF"></path><path d="M348,256.54s-5.71,6-6.73,19.64L346,274l4.54,3.38a34.8,34.8,0,0,1,1.39-20.63Z" style="fill:#fff;opacity:0.6000000000000001"></path><path d="M349.64,250.5s.31-4,1.35-3.95.68,4.13.68,4.13,2.29-3.35,3.15-2.76-1.49,3.92-1.49,3.92,3.66-1.76,4.11-.81-3.24,2.64-3.24,2.64,4,.31,4,1.36-4.13.67-4.13.67,3.35,2.29,2.75,3.15-3.91-1.48-3.91-1.48,1.75,3.66.81,4.1-2.65-3.24-2.65-3.24-.31,4-1.35,4-.68-4.13-.68-4.13-2.29,3.35-3.15,2.75,1.49-3.91,1.49-3.91-3.66,1.75-4.11.81,3.24-2.65,3.24-2.65-4-.31-4-1.35,4.13-.67,4.13-.67-3.35-2.29-2.75-3.15,3.91,1.48,3.91,1.48-1.75-3.66-.81-4.11S349.64,250.5,349.64,250.5Z" style="fill:#FFFFFF"></path><path d="M353.23,253.85a2.94,2.94,0,1,1-3.42-2.38A2.94,2.94,0,0,1,353.23,253.85Z" style="fill:#fff;opacity:0.5"></path><path d="M360.73,167.61s-8.19,4.64-1.5,6.73,9.67,5.07,8.39,9.27a5.84,5.84,0,0,0,2-4.08s.75,6.64-5.56,7.85a9.82,9.82,0,0,0,9.11-4.31C377,177.85,377.31,165.12,360.73,167.61Z" style="fill:#263238"></path><path d="M355.35,168.34s6.46-3.05,12.13.35,2.84,16.76,2.84,16.76h.57s5-14-2.11-17.68A13.82,13.82,0,0,0,355.35,168.34Z" style="fill:#FFFFFF"></path><path d="M373.69,187.58a5.28,5.28,0,0,1-3.18,2.42c-1.77.45-2.62-1.15-2.09-2.8.47-1.49,2-3.53,3.73-3.25A2.36,2.36,0,0,1,373.69,187.58Z" style="fill:#ffc3bd"></path><path d="M368.83,168.69s2.34-3.57,7.4-1.76c0,0,.85,4.52-4.27,7.41A17.5,17.5,0,0,0,368.83,168.69Z" style="fill:#FFFFFF"></path><path d="M370.41,169a7.68,7.68,0,0,1,1.89,3.54,6.4,6.4,0,0,0,2.77-4.48S373,166.93,370.41,169Z" style="fill:#fff;opacity:0.5"></path><path d="M355,168a8.38,8.38,0,0,1,3.39-1.2s-.88-2.51-3.08-2.64A4.49,4.49,0,0,0,355,168Z" style="fill:#fff;opacity:0.5"></path><path d="M361.38,241.68a.89.89,0,0,1,.56.18.84.84,0,0,1,.38.71,1.84,1.84,0,0,1-.39,1l-1,1.45L358,243l1-1.37a1.63,1.63,0,0,1,.76-.66.83.83,0,0,1,.76.11.86.86,0,0,1,.31.38.79.79,0,0,1,.07.46A.88.88,0,0,1,361.38,241.68Zm-2.6,1,.81.57.54-.77a1.06,1.06,0,0,0,.21-.51.42.42,0,0,0-.2-.37.44.44,0,0,0-.41-.06,1,1,0,0,0-.41.37Zm2.72-.35q-.42-.3-.87.33l-.62.88.85.6.61-.88Q361.92,242.67,361.5,242.37Z" style="fill:#FFFFFF"></path><path d="M361.68,239l.51.34-.1.11a.79.79,0,0,0-.15.61.86.86,0,0,0,.4.52l1.1.75-.36.53-2.26-1.53.34-.51.33.22A1.07,1.07,0,0,1,361.68,239Z" style="fill:#FFFFFF"></path><path d="M361.54,238.29a.35.35,0,0,1-.3,0,.36.36,0,0,1-.16-.25.38.38,0,0,1,.07-.3.41.41,0,0,1,.24-.19.37.37,0,0,1,.29.05.39.39,0,0,1,.17.25.43.43,0,0,1-.06.31A.4.4,0,0,1,361.54,238.29Zm.45.34.35-.54,2.28,1.51-.35.53Z" style="fill:#FFFFFF"></path><path d="M363.3,234.62l3.21,2-.33.52-.3-.19a1,1,0,0,1,0,.49,1.3,1.3,0,0,1-.19.48,1.43,1.43,0,0,1-.53.51,1.16,1.16,0,0,1-.68.15,1.58,1.58,0,0,1-1.24-.78,1.16,1.16,0,0,1-.15-.68,1.38,1.38,0,0,1,.23-.69,1.11,1.11,0,0,1,.34-.37.9.9,0,0,1,.44-.18l-1.19-.75Zm2.14,2.57a.86.86,0,0,0-.1-.41.92.92,0,0,0-.32-.33,1,1,0,0,0-.44-.15.71.71,0,0,0-.41.09.78.78,0,0,0-.31.29.91.91,0,0,0-.14.41.86.86,0,0,0,.1.41.87.87,0,0,0,.33.33.93.93,0,0,0,.43.15.71.71,0,0,0,.41-.09.78.78,0,0,0,.31-.29A.91.91,0,0,0,365.44,237.19Z" style="fill:#FFFFFF"></path><path d="M367.24,233.16l-1.1,1.85a.8.8,0,0,0,.57,0,1,1,0,0,0,.45-.42,1,1,0,0,0,.13-.79l.51-.09a1.21,1.21,0,0,1,.05.57,1.65,1.65,0,0,1-.23.6,1.6,1.6,0,0,1-.56.59,1.26,1.26,0,0,1-.7.2,1.37,1.37,0,0,1-.72-.21,1.44,1.44,0,0,1-.52-.52,1.22,1.22,0,0,1-.17-.69,1.37,1.37,0,0,1,.21-.72,1.44,1.44,0,0,1,.52-.52,1.23,1.23,0,0,1,.68-.17,1.45,1.45,0,0,1,.72.23Zm-1.75,1.16a.79.79,0,0,0,.29.47l.79-1.33a.72.72,0,0,0-.54,0,.77.77,0,0,0-.43.35A.82.82,0,0,0,365.49,234.32Z" style="fill:#FFFFFF"></path><path d="M368.59,233a1.74,1.74,0,0,1-.44.34l-.31-.45a1.52,1.52,0,0,0,.39-.29,2,2,0,0,0,.32-.41c.18-.33.19-.55,0-.65a.19.19,0,0,0-.24,0,2.1,2.1,0,0,0-.32.36,3.37,3.37,0,0,1-.38.42.83.83,0,0,1-.38.21.71.71,0,0,1-.48-.09.73.73,0,0,1-.38-.59,1.46,1.46,0,0,1,.22-.88,2.56,2.56,0,0,1,.33-.46,1.5,1.5,0,0,1,.38-.32l.3.45a1.52,1.52,0,0,0-.56.59.77.77,0,0,0-.13.41.26.26,0,0,0,.12.24.21.21,0,0,0,.26,0,2.61,2.61,0,0,0,.35-.37,3.16,3.16,0,0,1,.36-.41.78.78,0,0,1,.38-.2.58.58,0,0,1,.46.09.68.68,0,0,1,.37.59,1.49,1.49,0,0,1-.24.9A2.53,2.53,0,0,1,368.59,233Z" style="fill:#FFFFFF"></path><path d="M369.58,226a1.22,1.22,0,0,1,.94.14l1.39.71-.29.57-1.32-.68a.83.83,0,0,0-.55-.1.58.58,0,0,0-.37.32.66.66,0,0,0-.05.56.89.89,0,0,0,.45.45l1.24.63-.29.57-1.33-.68a.83.83,0,0,0-.55-.1.58.58,0,0,0-.37.32.66.66,0,0,0-.05.56.88.88,0,0,0,.46.45l1.23.63-.29.57-2.43-1.24.27-.55.31.16a1,1,0,0,1-.07-.47,1.4,1.4,0,0,1,.14-.5,1.27,1.27,0,0,1,.36-.43.8.8,0,0,1,.47-.18,1.11,1.11,0,0,1-.1-.54,1.37,1.37,0,0,1,.16-.58A1.11,1.11,0,0,1,369.58,226Z" style="fill:#FFFFFF"></path><path d="M370.79,223.35a1.14,1.14,0,0,1,.93.07l1.46.67-.25.55-.3-.14a.82.82,0,0,1,.11.42,1.53,1.53,0,0,1-.13.51,1.44,1.44,0,0,1-.32.45.82.82,0,0,1-.42.2.65.65,0,0,1-.43-.06.72.72,0,0,1-.43-.49,1.33,1.33,0,0,1,.16-.88l.29-.64,0,0a.56.56,0,0,0-.47,0,.74.74,0,0,0-.35.4,1.69,1.69,0,0,0-.12.44,1.21,1.21,0,0,0,0,.43l-.52,0a1.53,1.53,0,0,1,0-.57,2.11,2.11,0,0,1,.19-.62A1.32,1.32,0,0,1,370.79,223.35Zm1.52,1.33a.6.6,0,0,0-.17-.37l-.29-.13-.28.6c-.15.34-.12.56.1.66a.37.37,0,0,0,.31,0,.68.68,0,0,0,.26-.31A.85.85,0,0,0,372.31,224.68Z" style="fill:#FFFFFF"></path><path d="M370.49,222a.35.35,0,0,1-.3,0,.41.41,0,0,1-.21-.22.42.42,0,0,1,0-.31.4.4,0,0,1,.21-.23.33.33,0,0,1,.29,0,.36.36,0,0,1,.21.21.4.4,0,0,1,0,.32A.35.35,0,0,1,370.49,222Zm.5.25.25-.59,2.52,1.07-.25.59Z" style="fill:#FFFFFF"></path><path d="M371.53,218l3.55,1.37-.23.57-.33-.13a.91.91,0,0,1,.13.48,1.17,1.17,0,0,1-.09.51,1.48,1.48,0,0,1-.42.6,1.24,1.24,0,0,1-.64.28,1.43,1.43,0,0,1-.75-.1,1.47,1.47,0,0,1-.62-.43,1.37,1.37,0,0,1-.28-.64,1.39,1.39,0,0,1,.1-.72,1.24,1.24,0,0,1,.26-.43,1,1,0,0,1,.4-.26l-1.31-.51Zm2.6,2.11a.71.71,0,0,0-.18-.38.83.83,0,0,0-.38-.27.93.93,0,0,0-.46-.06.76.76,0,0,0-.38.16.9.9,0,0,0-.25.35.93.93,0,0,0-.05.43.81.81,0,0,0,.17.38,1,1,0,0,0,.84.32.76.76,0,0,0,.39-.16.9.9,0,0,0,.25-.35A.87.87,0,0,0,374.13,220.15Z" style="fill:#FFFFFF"></path><g style="opacity:0.5"><path d="M361.38,241.68a.89.89,0,0,1,.56.18.84.84,0,0,1,.38.71,1.84,1.84,0,0,1-.39,1l-1,1.45L358,243l1-1.37a1.63,1.63,0,0,1,.76-.66.83.83,0,0,1,.76.11.86.86,0,0,1,.31.38.79.79,0,0,1,.07.46A.88.88,0,0,1,361.38,241.68Zm-2.6,1,.81.57.54-.77a1.06,1.06,0,0,0,.21-.51.42.42,0,0,0-.2-.37.44.44,0,0,0-.41-.06,1,1,0,0,0-.41.37Zm2.72-.35q-.42-.3-.87.33l-.62.88.85.6.61-.88Q361.92,242.67,361.5,242.37Z"></path><path d="M361.68,239l.51.34-.1.11a.79.79,0,0,0-.15.61.86.86,0,0,0,.4.52l1.1.75-.36.53-2.26-1.53.34-.51.33.22A1.07,1.07,0,0,1,361.68,239Z"></path><path d="M361.54,238.29a.35.35,0,0,1-.3,0,.36.36,0,0,1-.16-.25.38.38,0,0,1,.07-.3.41.41,0,0,1,.24-.19.37.37,0,0,1,.29.05.39.39,0,0,1,.17.25.43.43,0,0,1-.06.31A.4.4,0,0,1,361.54,238.29Zm.45.34.35-.54,2.28,1.51-.35.53Z"></path><path d="M363.3,234.62l3.21,2-.33.52-.3-.19a1,1,0,0,1,0,.49,1.3,1.3,0,0,1-.19.48,1.43,1.43,0,0,1-.53.51,1.16,1.16,0,0,1-.68.15,1.58,1.58,0,0,1-1.24-.78,1.16,1.16,0,0,1-.15-.68,1.38,1.38,0,0,1,.23-.69,1.11,1.11,0,0,1,.34-.37.9.9,0,0,1,.44-.18l-1.19-.75Zm2.14,2.57a.86.86,0,0,0-.1-.41.92.92,0,0,0-.32-.33,1,1,0,0,0-.44-.15.71.71,0,0,0-.41.09.78.78,0,0,0-.31.29.91.91,0,0,0-.14.41.86.86,0,0,0,.1.41.87.87,0,0,0,.33.33.93.93,0,0,0,.43.15.71.71,0,0,0,.41-.09.78.78,0,0,0,.31-.29A.91.91,0,0,0,365.44,237.19Z"></path><path d="M367.24,233.16l-1.1,1.85a.8.8,0,0,0,.57,0,1,1,0,0,0,.45-.42,1,1,0,0,0,.13-.79l.51-.09a1.21,1.21,0,0,1,.05.57,1.65,1.65,0,0,1-.23.6,1.6,1.6,0,0,1-.56.59,1.26,1.26,0,0,1-.7.2,1.37,1.37,0,0,1-.72-.21,1.44,1.44,0,0,1-.52-.52,1.22,1.22,0,0,1-.17-.69,1.37,1.37,0,0,1,.21-.72,1.44,1.44,0,0,1,.52-.52,1.23,1.23,0,0,1,.68-.17,1.45,1.45,0,0,1,.72.23Zm-1.75,1.16a.79.79,0,0,0,.29.47l.79-1.33a.72.72,0,0,0-.54,0,.77.77,0,0,0-.43.35A.82.82,0,0,0,365.49,234.32Z"></path><path d="M368.59,233a1.74,1.74,0,0,1-.44.34l-.31-.45a1.52,1.52,0,0,0,.39-.29,2,2,0,0,0,.32-.41c.18-.33.19-.55,0-.65a.19.19,0,0,0-.24,0,2.1,2.1,0,0,0-.32.36,3.37,3.37,0,0,1-.38.42.83.83,0,0,1-.38.21.71.71,0,0,1-.48-.09.73.73,0,0,1-.38-.59,1.46,1.46,0,0,1,.22-.88,2.56,2.56,0,0,1,.33-.46,1.5,1.5,0,0,1,.38-.32l.3.45a1.52,1.52,0,0,0-.56.59.77.77,0,0,0-.13.41.26.26,0,0,0,.12.24.21.21,0,0,0,.26,0,2.61,2.61,0,0,0,.35-.37,3.16,3.16,0,0,1,.36-.41.78.78,0,0,1,.38-.2.58.58,0,0,1,.46.09.68.68,0,0,1,.37.59,1.49,1.49,0,0,1-.24.9A2.53,2.53,0,0,1,368.59,233Z"></path><path d="M369.58,226a1.22,1.22,0,0,1,.94.14l1.39.71-.29.57-1.32-.68a.83.83,0,0,0-.55-.1.58.58,0,0,0-.37.32.66.66,0,0,0-.05.56.89.89,0,0,0,.45.45l1.24.63-.29.57-1.33-.68a.83.83,0,0,0-.55-.1.58.58,0,0,0-.37.32.66.66,0,0,0-.05.56.88.88,0,0,0,.46.45l1.23.63-.29.57-2.43-1.24.27-.55.31.16a1,1,0,0,1-.07-.47,1.4,1.4,0,0,1,.14-.5,1.27,1.27,0,0,1,.36-.43.8.8,0,0,1,.47-.18,1.11,1.11,0,0,1-.1-.54,1.37,1.37,0,0,1,.16-.58A1.11,1.11,0,0,1,369.58,226Z"></path><path d="M370.79,223.35a1.14,1.14,0,0,1,.93.07l1.46.67-.25.55-.3-.14a.82.82,0,0,1,.11.42,1.53,1.53,0,0,1-.13.51,1.44,1.44,0,0,1-.32.45.82.82,0,0,1-.42.2.65.65,0,0,1-.43-.06.72.72,0,0,1-.43-.49,1.33,1.33,0,0,1,.16-.88l.29-.64,0,0a.56.56,0,0,0-.47,0,.74.74,0,0,0-.35.4,1.69,1.69,0,0,0-.12.44,1.21,1.21,0,0,0,0,.43l-.52,0a1.53,1.53,0,0,1,0-.57,2.11,2.11,0,0,1,.19-.62A1.32,1.32,0,0,1,370.79,223.35Zm1.52,1.33a.6.6,0,0,0-.17-.37l-.29-.13-.28.6c-.15.34-.12.56.1.66a.37.37,0,0,0,.31,0,.68.68,0,0,0,.26-.31A.85.85,0,0,0,372.31,224.68Z"></path><path d="M370.49,222a.35.35,0,0,1-.3,0,.41.41,0,0,1-.21-.22.42.42,0,0,1,0-.31.4.4,0,0,1,.21-.23.33.33,0,0,1,.29,0,.36.36,0,0,1,.21.21.4.4,0,0,1,0,.32A.35.35,0,0,1,370.49,222Zm.5.25.25-.59,2.52,1.07-.25.59Z"></path><path d="M371.53,218l3.55,1.37-.23.57-.33-.13a.91.91,0,0,1,.13.48,1.17,1.17,0,0,1-.09.51,1.48,1.48,0,0,1-.42.6,1.24,1.24,0,0,1-.64.28,1.43,1.43,0,0,1-.75-.1,1.47,1.47,0,0,1-.62-.43,1.37,1.37,0,0,1-.28-.64,1.39,1.39,0,0,1,.1-.72,1.24,1.24,0,0,1,.26-.43,1,1,0,0,1,.4-.26l-1.31-.51Zm2.6,2.11a.71.71,0,0,0-.18-.38.83.83,0,0,0-.38-.27.93.93,0,0,0-.46-.06.76.76,0,0,0-.38.16.9.9,0,0,0-.25.35.93.93,0,0,0-.05.43.81.81,0,0,0,.17.38,1,1,0,0,0,.84.32.76.76,0,0,0,.39-.16.9.9,0,0,0,.25-.35A.87.87,0,0,0,374.13,220.15Z"></path></g></g><g id="freepik--character-3--inject-4"><path d="M293.57,245.44s-14.41,53.92-17.42,75.7c-3.14,22.66-6.86,86.55-6.86,86.55l7,1.65s12.88-61.6,17.28-83.63c4.81-24,21.16-76.88,21.16-76.88Z" style="fill:#ce7a63"></path><path d="M337.82,404.84s-19.38-52.76-22-64.92c-5.67-26,10.08-61.06,5-78.23l-21.27-3.41s-2.6,58.05-.59,77.15C301.3,358.09,331,407.27,331,407.27Z" style="fill:#ce7a63"></path><path d="M330.46,406.22l7.13-3.83a.57.57,0,0,1,.74.16l3.84,5.21a1.16,1.16,0,0,1-.41,1.68c-2.51,1.29-3.79,1.79-6.93,3.47-1.93,1-4.64,2.75-7.31,4.18s-4.22-1.13-3.24-2c4.41-3.74,4.4-5.63,5.32-7.94A1.88,1.88,0,0,1,330.46,406.22Z" style="fill:#FFFFFF"></path><path d="M268.8,406.72l7.88,1.85a.59.59,0,0,1,.45.62l-.57,6.44a1.17,1.17,0,0,1-1.42,1c-2.74-.7-4-1.17-7.49-2-2.14-.5-8.31-1.73-11.26-2.42s-2.41-3.64-1.12-3.62c5.77.12,10-.6,12.25-1.72A1.9,1.9,0,0,1,268.8,406.72Z" style="fill:#FFFFFF"></path><path d="M315.79,339.92c-2.15-9.83-1.22-21,.48-31.93l-18.06-4.64c-.15,12.74,0,25,.7,32.08a62.06,62.06,0,0,0,3.3,13.26,116,116,0,0,0,15.09-3.24C316.61,343.2,316.09,341.31,315.79,339.92Z" style="opacity:0.2"></path><path d="M293.58,325.71c1.2-6,3.13-13.84,5.34-22.18l-18.48-4.75c-1.91,8.63-3.5,16.62-4.29,22.36s-1.65,14.21-2.46,23.44c2.05,1.63,6.54,4.16,15,4.74C290.64,340,292.41,331.57,293.58,325.71Z" style="opacity:0.2"></path><path d="M295,173.08s-15.65,2.16-9.68,17.47c0,0-1.23-4.51.61-6.7,0,0-3,6.52,7,14s10.73,27.22,30.15,24.24S338.87,204,338.87,204s2.78,4.74.26,9.5c0,0,4-2.78,2.08-9.71s-17.16-3.52-20-9.6a8.21,8.21,0,0,0,6.52,2.17s-7.31-1.65-6.84-10.76S304.35,153.3,295,173.08Z" style="fill:#263238"></path><polygon points="294.75 194.76 292.97 191.27 292.76 191.16 290.97 194.65 291.19 194.76 294.75 194.76" style="fill:#FFFFFF"></polygon><polygon points="294.75 194.76 292.97 191.27 292.76 191.16 290.97 194.65 291.19 194.76 294.75 194.76" style="opacity:0.5"></polygon><polygon points="290.97 194.65 292.76 191.16 294.54 194.65 290.97 194.65" style="fill:#FFFFFF"></polygon><path d="M290.32,215.82c-1.13-.66-2.08-1.27-3.08-1.94s-2-1.32-2.92-2c-1.91-1.39-3.77-2.82-5.6-4.28s-3.6-3-5.34-4.58l-1.29-1.19c-.23-.21-.38-.34-.78-.73a10.41,10.41,0,0,1-.85-1,16,16,0,0,1-2-3.76,40.82,40.82,0,0,1-2-7.14c-.47-2.34-.82-4.68-1.08-7a120.61,120.61,0,0,1-.81-13.29.73.73,0,0,1,.69-.73l2.29-.16a.74.74,0,0,1,.77.61c.31,2,.64,4.05,1,6.06.4,2.23.81,4.45,1.29,6.65s1,4.38,1.59,6.49a40.86,40.86,0,0,0,2.13,6,10.71,10.71,0,0,0,1.34,2.22,5.2,5.2,0,0,0,.81.71l1.32,1.05c1.78,1.38,3.55,2.76,5.36,4.09s3.61,2.66,5.45,3.92l2.76,1.89c.91.6,1.88,1.24,2.71,1.77Z" style="fill:#ce7a63"></path><path d="M293.79,213.3c2.12-4.12,2-6.42-5.15-10.12-1.38-.72-3-1.48-4.95-2.32,0,0-1.83-4.27-3.48-3.2s-1.11,5-1.11,5-4.06-2.48-4.48-.86,2.66,4,2.66,4-3.28.11-2.7,2.25,3.92,1.12,3.92,1.12S286.31,227.78,293.79,213.3Z" style="fill:#FFFFFF"></path><path d="M286.17,210.6c-2.35,8.54-6.45,1-6.45,1h0c2.23,4.09,7.25,11.18,12.41,4.39C291.33,212.77,286.93,207.84,286.17,210.6Z" style="opacity:0.2"></path><path d="M308.31,189.62c-.52,4.32-.79,12.2,2.4,14.83,0,0-.85,4.41-8.78,5-8.71.63-4.48-4-4.48-4,4.68-1.49,4.3-5,3.23-8.26Z" style="fill:#ce7a63"></path><path d="M305.2,192.69l-4.52,4.46a13.23,13.23,0,0,1,.58,2.33c1.8-.4,4.15-2.57,4.21-4.49A6.49,6.49,0,0,0,305.2,192.69Z" style="opacity:0.2"></path><path d="M313.19,182.42c-1.63,7-2.17,9.94-6.35,13-6.27,4.52-14.47,1-14.95-6.32-.43-6.58,2.31-16.87,9.68-18.49A9.75,9.75,0,0,1,313.19,182.42Z" style="fill:#ce7a63"></path><path d="M296.42,171.81c-2.34,3.26,20.47,15.39,18.28,7.73S302.55,163.3,296.42,171.81Z" style="fill:#263238"></path><path d="M308,179.64c-.56,3.4,3.92,7.41,3.92,7.41s5.74-4.24,2.13-6.5S308,179.64,308,179.64Z" style="fill:#263238"></path><path d="M301.18,182.37c-.09.57-.48,1-.85.92s-.6-.58-.5-1.15.48-1,.85-.93S301.28,181.79,301.18,182.37Z" style="fill:#263238"></path><path d="M294.71,181.26c-.1.58-.48,1-.86.92s-.6-.58-.5-1.15.48-1,.86-.92S294.8,180.69,294.71,181.26Z" style="fill:#263238"></path><path d="M294.37,180.17l-1.31-.63S293.58,180.73,294.37,180.17Z" style="fill:#263238"></path><path d="M297,182.64a15.2,15.2,0,0,1-2.67,3.3,2.51,2.51,0,0,0,2,.74Z" style="fill:#ba4d3c"></path><path d="M314,189.2a5.26,5.26,0,0,1-3.18,2.41c-1.78.46-2.62-1.14-2.1-2.79.48-1.49,2-3.53,3.74-3.25A2.36,2.36,0,0,1,314,189.2Z" style="fill:#ce7a63"></path><path d="M304,181.49a.33.33,0,0,1-.32-.24,4,4,0,0,0-2.41-2.16.34.34,0,1,1,.21-.65,4.69,4.69,0,0,1,2.85,2.61.34.34,0,0,1-.22.43Z" style="fill:#263238"></path><path d="M293.27,177.94a.34.34,0,0,1-.16-.64,3.4,3.4,0,0,1,3.11-.21.34.34,0,0,1,.14.46.33.33,0,0,1-.45.15h0a2.72,2.72,0,0,0-2.46.19A.41.41,0,0,1,293.27,177.94Z" style="fill:#263238"></path><path d="M300.84,181.27l-1.31-.63S300.06,181.84,300.84,181.27Z" style="fill:#263238"></path><path d="M318.44,301.11c4-20.26,10.45-36.18,2.78-52.32,0,0-4.22-18.27,1.37-41.44a2.2,2.2,0,0,0-2-2.7c-2.34-.13-6-.27-10.22-.26-1.6.71-5.28,2.23-7.69,2.23a4,4,0,0,1-3.63-1.77,35.56,35.56,0,0,1-9.94-.31,2.88,2.88,0,0,0-3.47,2.64c-.34,5.44.3,17.65,7,42.54,0,0-12.66,32.43-19.49,90.88,0,0,13.68,11.24,52.11,2C325.27,342.6,314.45,321.38,318.44,301.11Z" style="fill:#FFFFFF"></path><path d="M321.22,214l-2.73-3.32-2.35,2.4a19.21,19.21,0,0,0,3.69,13.44A106.34,106.34,0,0,1,321.22,214Z" style="opacity:0.2"></path><path d="M325.17,254.19l-7.33,2.63,6.33,3.68s4-2.38,3.82-5.37Z" style="fill:#ce7a63"></path><polygon points="314.6 261.94 320.07 264.74 324.17 260.5 317.83 256.82 314.6 261.94" style="fill:#ce7a63"></polygon><path d="M323.76,209.27c.75.91,1.35,1.71,2,2.6s1.2,1.74,1.78,2.63a61.29,61.29,0,0,1,3.14,5.54,46.44,46.44,0,0,1,2.55,6,33.65,33.65,0,0,1,1.58,6.51c.06.59.14,1.06.16,1.9a14.37,14.37,0,0,1-.12,1.93,30.65,30.65,0,0,1-.64,3.3c-.51,2.09-1.17,4.07-1.85,6a109.69,109.69,0,0,1-4.44,10.54.94.94,0,0,1-1.17.46l-1.84-.7a.92.92,0,0,1-.57-1.1l1.26-5q.75-2.9,1.38-5.78c.44-1.91.82-3.83,1.11-5.68.14-.92.24-1.84.28-2.66a9.43,9.43,0,0,0,0-1.08c0-.17-.12-.69-.19-1.1a38.73,38.73,0,0,0-4-10.17c-.87-1.65-1.88-3.25-2.89-4.84-.55-.85-1.11-1.68-1.69-2.5s-1.08-1.52-1.57-2.15Z" style="fill:#ce7a63"></path><path d="M323.23,223.69s-9.25-2.42-6.62-13.3,11.88-5.48,14.16,6.33c0,0,4.26,1.15,3.69,3s-3.62.88-3.62.88,1.39,3.7-.37,4.55-3.26-1.49-3.26-1.49-.5,4.55-2.49,4.05S323.23,223.69,323.23,223.69Z" style="fill:#FFFFFF"></path><path d="M296.28,189.46a42.77,42.77,0,0,1,7.79-2.38c-.26,1.92-1.19,3.63-4.17,4.35a2.79,2.79,0,0,1-3.54-1.73C296.33,189.62,296.31,189.54,296.28,189.46Z" style="fill:#263238"></path><path d="M300.93,189.7a5.62,5.62,0,0,0-3,1.64,3.3,3.3,0,0,0,2,.07,5.61,5.61,0,0,0,3-1.63A3.22,3.22,0,0,0,300.93,189.7Z" style="fill:#a02724"></path><path d="M296.54,189.34a1.24,1.24,0,0,0,1.12.65,32,32,0,0,0,5-1.68,1.73,1.73,0,0,0,1.1-1.18A49.81,49.81,0,0,0,296.54,189.34Z" style="fill:#fff"></path><polygon points="313.53 194.49 311.74 191 311.53 190.89 309.75 194.38 309.96 194.49 313.53 194.49" style="fill:#FFFFFF"></polygon><polygon points="313.53 194.49 311.74 191 311.53 190.89 309.75 194.38 309.96 194.49 313.53 194.49" style="opacity:0.5"></polygon><polygon points="309.75 194.38 311.53 190.89 313.31 194.38 309.75 194.38" style="fill:#FFFFFF"></polygon><path d="M312.46,203.39s.68,19.06-25.56,50l4.52,5.81s25.07-26,28.83-54.81Z" style="fill:#FFFFFF"></path><path d="M312.46,203.39s.68,19.06-25.56,50l4.52,5.81s25.07-26,28.83-54.81Z" style="fill:#fff;opacity:0.5"></path><path d="M286.83,257.74s-5.72,6-6.74,19.63l4.75-2.15,4.54,3.37A34.68,34.68,0,0,1,290.77,258Z" style="fill:#FFFFFF"></path><path d="M286.83,257.74s-5.72,6-6.74,19.63l4.75-2.15,4.54,3.37A34.68,34.68,0,0,1,290.77,258Z" style="fill:#fff;opacity:0.5"></path><path d="M288.87,251.73s.74-4.12,1.77-4.15.24,4.11.24,4.11,2.64-3.63,3.44-3.11-1.89,4.11-1.89,4.11,3.84-2.16,4.18-1.25-3.51,3-3.51,3,4-.11,3.81,1-4.2,1.11-4.2,1.11,3.11,2,2.42,2.9-3.75-1.09-3.75-1.09,1.37,3.51.37,4.06-2.3-3-2.3-3-.74,4.13-1.77,4.15-.24-4.11-.24-4.11-2.64,3.63-3.44,3.12,1.9-4.11,1.9-4.11-3.85,2.16-4.19,1.25,3.51-3,3.51-3-4,.11-3.81-1,4.2-1.12,4.2-1.12-3.11-2-2.42-2.89,3.75,1.09,3.75,1.09-1.37-3.52-.37-4.07S288.87,251.73,288.87,251.73Z" style="fill:#FFFFFF"></path><path d="M288.87,251.73s.74-4.12,1.77-4.15.24,4.11.24,4.11,2.64-3.63,3.44-3.11-1.89,4.11-1.89,4.11,3.84-2.16,4.18-1.25-3.51,3-3.51,3,4-.11,3.81,1-4.2,1.11-4.2,1.11,3.11,2,2.42,2.9-3.75-1.09-3.75-1.09,1.37,3.51.37,4.06-2.3-3-2.3-3-.74,4.13-1.77,4.15-.24-4.11-.24-4.11-2.64,3.63-3.44,3.12,1.9-4.11,1.9-4.11-3.85,2.16-4.19,1.25,3.51-3,3.51-3-4,.11-3.81-1,4.2-1.12,4.2-1.12-3.11-2-2.42-2.89,3.75,1.09,3.75,1.09-1.37-3.52-.37-4.07S288.87,251.73,288.87,251.73Z" style="fill:#fff;opacity:0.2"></path><path d="M292.11,254.73a3.79,3.79,0,0,1-2.73,3.71,2.34,2.34,0,0,1-3.17-2.05,3.77,3.77,0,0,1,2.73-3.7A2.34,2.34,0,0,1,292.11,254.73Z" style="fill:#fff;opacity:0.5"></path><path d="M299.27,243.78a.84.84,0,0,1,.56.2.82.82,0,0,1,.35.72,1.74,1.74,0,0,1-.42,1l-1.07,1.43L295.82,245l1-1.34a1.64,1.64,0,0,1,.79-.63.78.78,0,0,1,.75.13.86.86,0,0,1,.36.85A.92.92,0,0,1,299.27,243.78Zm-2.63.95.79.6.57-.76a.94.94,0,0,0,.22-.5.45.45,0,0,0-.59-.44.93.93,0,0,0-.42.35Zm2.73-.26c-.28-.2-.57-.1-.88.31l-.65.86.83.62.65-.86C299.63,245,299.64,244.68,299.37,244.47Z" style="fill:#FFFFFF"></path><path d="M299.66,241.15l.49.35-.1.11a.79.79,0,0,0-.16.6.84.84,0,0,0,.38.54l1.08.78-.38.52-2.21-1.6.35-.5.33.24A1,1,0,0,1,299.66,241.15Z" style="fill:#FFFFFF"></path><path d="M299.53,240.41a.38.38,0,0,1-.45-.32.38.38,0,0,1,.08-.3.45.45,0,0,1,.25-.18.35.35,0,0,1,.28.06.36.36,0,0,1,.17.26.41.41,0,0,1-.07.3A.42.42,0,0,1,299.53,240.41Zm.44.35.37-.53,2.23,1.58-.37.52Z" style="fill:#FFFFFF"></path><path d="M301.4,236.79l3.15,2.13-.35.51-.29-.2a.9.9,0,0,1,0,.49,1.4,1.4,0,0,1-.2.48,1.43,1.43,0,0,1-.55.49,1.22,1.22,0,0,1-.68.13,1.59,1.59,0,0,1-1.22-.82,1.27,1.27,0,0,1-.13-.69,1.4,1.4,0,0,1,.26-.68,1.34,1.34,0,0,1,.35-.36.91.91,0,0,1,.45-.16l-1.17-.79Zm2.06,2.64a.82.82,0,0,0-.08-.41,1,1,0,0,0-.32-.35.91.91,0,0,0-.43-.16.81.81,0,0,0-.41.07.88.88,0,0,0-.32.29.79.79,0,0,0-.15.4.75.75,0,0,0,.09.41.91.91,0,0,0,.31.34,1,1,0,0,0,.43.17.85.85,0,0,0,.42-.08.75.75,0,0,0,.31-.28A.79.79,0,0,0,303.46,239.43Z" style="fill:#FFFFFF"></path><path d="M305.39,235.46l-1.15,1.8a.73.73,0,0,0,.56,0,.94.94,0,0,0,.47-.4,1,1,0,0,0,.15-.79l.51-.07a1.09,1.09,0,0,1,0,.57,1.57,1.57,0,0,1-.24.59,1.69,1.69,0,0,1-.58.58,1.3,1.3,0,0,1-.71.18,1.4,1.4,0,0,1-.71-.24,1.46,1.46,0,0,1-.51-.54,1.37,1.37,0,0,1-.15-.69,1.58,1.58,0,0,1,.24-.71,1.46,1.46,0,0,1,.54-.51,1.23,1.23,0,0,1,.68-.14,1.39,1.39,0,0,1,.72.25Zm-1.78,1.1a.7.7,0,0,0,.27.48l.83-1.31a.78.78,0,0,0-.54,0,.77.77,0,0,0-.43.35A.7.7,0,0,0,303.61,236.56Z" style="fill:#FFFFFF"></path><path d="M305.2,232.16l-.6,1-.48-.28,1.53-2.63.49.28-.6,1,2.61,1.52-.34.57Z" style="fill:#FFFFFF"></path><path d="M308.91,231.47a1.31,1.31,0,0,1-.68.22,1.5,1.5,0,0,1-.73-.19A1.4,1.4,0,0,1,307,231a1.28,1.28,0,0,1-.19-.69,1.67,1.67,0,0,1,.72-1.32,1.31,1.31,0,0,1,.68-.22,1.61,1.61,0,0,1,.73.18,1.47,1.47,0,0,1,.54.51,1.34,1.34,0,0,1,.19.7,1.62,1.62,0,0,1-.2.75A1.51,1.51,0,0,1,308.91,231.47ZM309,230a.84.84,0,0,0-.43-.5.87.87,0,0,0-.66-.09.76.76,0,0,0-.48.4.72.72,0,0,0-.07.62.87.87,0,0,0,.43.5.85.85,0,0,0,.65.09.78.78,0,0,0,.49-.4A.75.75,0,0,0,309,230Z" style="fill:#FFFFFF"></path><path d="M310.94,224.38a.9.9,0,0,1,.59.09.81.81,0,0,1,.49.63,1.76,1.76,0,0,1-.22,1.05l-.76,1.61-3.24-1.54.72-1.52a1.6,1.6,0,0,1,.65-.77.79.79,0,0,1,.76,0,.83.83,0,0,1,.37.32.86.86,0,0,1,.15.44A.92.92,0,0,1,310.94,224.38Zm-2.38,1.46.89.43.41-.85a1,1,0,0,0,.11-.54.38.38,0,0,0-.25-.32.4.4,0,0,0-.41,0,1,1,0,0,0-.35.43Zm2.62-.8c-.31-.14-.58,0-.8.48l-.46,1,.93.45.46-1C311.53,225.5,311.49,225.19,311.18,225Z" style="fill:#FFFFFF"></path><path d="M312.62,221.41l-.83,2a.7.7,0,0,0,.55-.08,1.07,1.07,0,0,0,.41-1.28l.5-.16a1.07,1.07,0,0,1,.12.56,1.67,1.67,0,0,1-.14.63,1.82,1.82,0,0,1-.48.66,1.27,1.27,0,0,1-.66.29,1.37,1.37,0,0,1-.74-.11,1.34,1.34,0,0,1-.59-.45,1.29,1.29,0,0,1-.27-.65,1.58,1.58,0,0,1,.12-.74,1.41,1.41,0,0,1,.44-.59,1.2,1.2,0,0,1,.65-.26,1.45,1.45,0,0,1,.75.12Zm-1.57,1.38a.75.75,0,0,0,.34.43l.61-1.43a.71.71,0,0,0-.54.05.81.81,0,0,0-.41.95Z" style="fill:#FFFFFF"></path><g style="opacity:0.5"><path d="M299.27,243.78a.84.84,0,0,1,.56.2.82.82,0,0,1,.35.72,1.74,1.74,0,0,1-.42,1l-1.07,1.43L295.82,245l1-1.34a1.64,1.64,0,0,1,.79-.63.78.78,0,0,1,.75.13.86.86,0,0,1,.36.85A.92.92,0,0,1,299.27,243.78Zm-2.63.95.79.6.57-.76a.94.94,0,0,0,.22-.5.45.45,0,0,0-.59-.44.93.93,0,0,0-.42.35Zm2.73-.26c-.28-.2-.57-.1-.88.31l-.65.86.83.62.65-.86C299.63,245,299.64,244.68,299.37,244.47Z"></path><path d="M299.66,241.15l.49.35-.1.11a.79.79,0,0,0-.16.6.84.84,0,0,0,.38.54l1.08.78-.38.52-2.21-1.6.35-.5.33.24A1,1,0,0,1,299.66,241.15Z"></path><path d="M299.53,240.41a.38.38,0,0,1-.45-.32.38.38,0,0,1,.08-.3.45.45,0,0,1,.25-.18.35.35,0,0,1,.28.06.36.36,0,0,1,.17.26.41.41,0,0,1-.07.3A.42.42,0,0,1,299.53,240.41Zm.44.35.37-.53,2.23,1.58-.37.52Z"></path><path d="M301.4,236.79l3.15,2.13-.35.51-.29-.2a.9.9,0,0,1,0,.49,1.4,1.4,0,0,1-.2.48,1.43,1.43,0,0,1-.55.49,1.22,1.22,0,0,1-.68.13,1.59,1.59,0,0,1-1.22-.82,1.27,1.27,0,0,1-.13-.69,1.4,1.4,0,0,1,.26-.68,1.34,1.34,0,0,1,.35-.36.91.91,0,0,1,.45-.16l-1.17-.79Zm2.06,2.64a.82.82,0,0,0-.08-.41,1,1,0,0,0-.32-.35.91.91,0,0,0-.43-.16.81.81,0,0,0-.41.07.88.88,0,0,0-.32.29.79.79,0,0,0-.15.4.75.75,0,0,0,.09.41.91.91,0,0,0,.31.34,1,1,0,0,0,.43.17.85.85,0,0,0,.42-.08.75.75,0,0,0,.31-.28A.79.79,0,0,0,303.46,239.43Z"></path><path d="M305.39,235.46l-1.15,1.8a.73.73,0,0,0,.56,0,.94.94,0,0,0,.47-.4,1,1,0,0,0,.15-.79l.51-.07a1.09,1.09,0,0,1,0,.57,1.57,1.57,0,0,1-.24.59,1.69,1.69,0,0,1-.58.58,1.3,1.3,0,0,1-.71.18,1.4,1.4,0,0,1-.71-.24,1.46,1.46,0,0,1-.51-.54,1.37,1.37,0,0,1-.15-.69,1.58,1.58,0,0,1,.24-.71,1.46,1.46,0,0,1,.54-.51,1.23,1.23,0,0,1,.68-.14,1.39,1.39,0,0,1,.72.25Zm-1.78,1.1a.7.7,0,0,0,.27.48l.83-1.31a.78.78,0,0,0-.54,0,.77.77,0,0,0-.43.35A.7.7,0,0,0,303.61,236.56Z"></path><path d="M305.2,232.16l-.6,1-.48-.28,1.53-2.63.49.28-.6,1,2.61,1.52-.34.57Z"></path><path d="M308.91,231.47a1.31,1.31,0,0,1-.68.22,1.5,1.5,0,0,1-.73-.19A1.4,1.4,0,0,1,307,231a1.28,1.28,0,0,1-.19-.69,1.67,1.67,0,0,1,.72-1.32,1.31,1.31,0,0,1,.68-.22,1.61,1.61,0,0,1,.73.18,1.47,1.47,0,0,1,.54.51,1.34,1.34,0,0,1,.19.7,1.62,1.62,0,0,1-.2.75A1.51,1.51,0,0,1,308.91,231.47ZM309,230a.84.84,0,0,0-.43-.5.87.87,0,0,0-.66-.09.76.76,0,0,0-.48.4.72.72,0,0,0-.07.62.87.87,0,0,0,.43.5.85.85,0,0,0,.65.09.78.78,0,0,0,.49-.4A.75.75,0,0,0,309,230Z"></path><path d="M310.94,224.38a.9.9,0,0,1,.59.09.81.81,0,0,1,.49.63,1.76,1.76,0,0,1-.22,1.05l-.76,1.61-3.24-1.54.72-1.52a1.6,1.6,0,0,1,.65-.77.79.79,0,0,1,.76,0,.83.83,0,0,1,.37.32.86.86,0,0,1,.15.44A.92.92,0,0,1,310.94,224.38Zm-2.38,1.46.89.43.41-.85a1,1,0,0,0,.11-.54.38.38,0,0,0-.25-.32.4.4,0,0,0-.41,0,1,1,0,0,0-.35.43Zm2.62-.8c-.31-.14-.58,0-.8.48l-.46,1,.93.45.46-1C311.53,225.5,311.49,225.19,311.18,225Z"></path><path d="M312.62,221.41l-.83,2a.7.7,0,0,0,.55-.08,1.07,1.07,0,0,0,.41-1.28l.5-.16a1.07,1.07,0,0,1,.12.56,1.67,1.67,0,0,1-.14.63,1.82,1.82,0,0,1-.48.66,1.27,1.27,0,0,1-.66.29,1.37,1.37,0,0,1-.74-.11,1.34,1.34,0,0,1-.59-.45,1.29,1.29,0,0,1-.27-.65,1.58,1.58,0,0,1,.12-.74,1.41,1.41,0,0,1,.44-.59,1.2,1.2,0,0,1,.65-.26,1.45,1.45,0,0,1,.75.12Zm-1.57,1.38a.75.75,0,0,0,.34.43l.61-1.43a.71.71,0,0,0-.54.05.81.81,0,0,0-.41.95Z"></path></g><path d="M268.16,167.46l-2.28-6.75-3.8,6.27s2.31,4,5.31,3.92l.76-2.18A1.94,1.94,0,0,0,268.16,167.46Z" style="fill:#ce7a63"></path><polygon points="260.81 157.39 257.92 162.81 262.08 166.98 265.88 160.71 260.81 157.39" style="fill:#ce7a63"></polygon><path d="M308.57,174.47s6.5.4,11.68,15.52c3.53,10.34,13.37,6.64,13.37,6.64s-9-1.65-12.95-15.2c-4.3-14.65-16.12-21.54-25-12.94l.76,2Z" style="fill:#fff;opacity:0.4"></path><path d="M291.41,175.79s5.95-8.11,18.34,0l3.09-7s-3.29,2.24-5.64.21-1.5-7.25-1.5-7.25-3.48,5.62-6.17,4.73-3.87-5.8-3.87-5.8-.26,7.68-2.8,8.82c-1.89.84-5.08,0-5.08,0Z" style="fill:#FFFFFF"></path><path d="M291.41,175.79s5.95-8.11,18.34,0l3.09-7s-3.29,2.24-5.64.21-1.5-7.25-1.5-7.25-3.48,5.62-6.17,4.73-3.87-5.8-3.87-5.8-.26,7.68-2.8,8.82c-1.89.84-5.08,0-5.08,0Z" style="fill:#fff;opacity:0.7000000000000001"></path><path d="M314.34,252.26c-9.41,5.93-15.58,1.93-15.58,1.93.95,9,12.29.8,15.61-1.81Z" style="opacity:0.2"></path><path d="M262.79,165.49v-7.78a1.66,1.66,0,0,1,1.12-1.6,6.48,6.48,0,0,0,4.34-6.21,6.68,6.68,0,0,0-1.63-4.4h-9.08a6.68,6.68,0,0,0-1.63,4.4,6.48,6.48,0,0,0,4.34,6.21,1.66,1.66,0,0,1,1.12,1.6v7.78a1.69,1.69,0,0,1-1.41,1.67c-1.4.23-2.35.69-2.35,1.21,0,.76,2,.9,4.47.9s4.47-.14,4.47-.9c0-.52-.95-1-2.35-1.21A1.69,1.69,0,0,1,262.79,165.49Z" style="fill:#FFFFFF"></path><path d="M262.79,165.49v-7.78a1.66,1.66,0,0,1,1.12-1.6,6.48,6.48,0,0,0,4.34-6.21,6.68,6.68,0,0,0-1.63-4.4h-9.08a6.68,6.68,0,0,0-1.63,4.4,6.48,6.48,0,0,0,4.34,6.21,1.66,1.66,0,0,1,1.12,1.6v7.78a1.69,1.69,0,0,1-1.41,1.67c-1.4.23-2.35.69-2.35,1.21,0,.76,2,.9,4.47.9s4.47-.14,4.47-.9c0-.52-.95-1-2.35-1.21A1.69,1.69,0,0,1,262.79,165.49Z" style="fill:#fff;opacity:0.6000000000000001"></path><path d="M257.21,149.34a5.09,5.09,0,0,0,0,.56,5.2,5.2,0,0,0,3.47,5,2.85,2.85,0,0,1,1.44,1.05,2.85,2.85,0,0,1,1.44-1.05,5.19,5.19,0,0,0,3.47-5,5.09,5.09,0,0,0,0-.56Z" style="fill:#FFFFFF"></path><path d="M266.32,153.4a6.14,6.14,0,0,0,.05-6.92c-.25-.37-.85,0-.6.35a5.43,5.43,0,0,1,0,6.22c-.25.37.34.72.6.35Z" style="fill:#FFFFFF"></path><g style="opacity:0.9"><path d="M266.32,153.4a6.14,6.14,0,0,0,.05-6.92c-.25-.37-.85,0-.6.35a5.43,5.43,0,0,1,0,6.22c-.25.37.34.72.6.35Z" style="fill:#fff"></path></g></g><g id="freepik--character-1--inject-4"><path d="M139.4,173s-13.39-3.87-17.15,8,8.95,27.71-3,44.84,30.68,7,31.83,1.38.16-22.66,2.8-33S149.17,170.14,139.4,173Z" style="fill:#263238"></path><path d="M201,223.29l6.79-6.09a2.76,2.76,0,0,0,.43-3.62L206,210.43a2.74,2.74,0,0,0-3.36-1l-1.28.55a2.76,2.76,0,0,0-1.63,2.13l-1.12,7.71-13.27,5.57,3,7.22A142.15,142.15,0,0,0,201,223.29Z" style="fill:#ffb573"></path><path d="M153.55,208.91s7.48-.18,12.19,9.35S173.11,229,173.11,229l19.29-7,3,5.79s-14.76,12.65-23.65,12.65-20.34-26.43-20.34-26.43Z" style="fill:#FFFFFF"></path><path d="M153.55,208.91s7.48-.18,12.19,9.35S173.11,229,173.11,229l19.29-7,3,5.79s-14.76,12.65-23.65,12.65-20.34-26.43-20.34-26.43Z" style="fill:#fff;opacity:0.5"></path><path d="M161.85,218.51l-3.37-2.37h-2.16v4l.5,4.7c2.8,5,6.39,10.42,10,13.4a17.71,17.71,0,0,1-.61-5.05C166.18,226.09,161.85,218.51,161.85,218.51Z" style="opacity:0.2"></path><path d="M153.78,403.32c.67,3,1.2,5.79,1.2,5.79l6-1.08-.29-6.18Z" style="fill:#ffb573"></path><path d="M162.69,408a.16.16,0,0,1-.16-.11.16.16,0,0,1,.05-.19c.1-.08,2.32-2,3.57-1.85a.94.94,0,0,1,.61.3.65.65,0,0,1,.15.73,3.1,3.1,0,0,1-2,.93A12.72,12.72,0,0,1,162.69,408Zm.5-.32c1.36-.08,3.16-.42,3.41-.94,0-.07.06-.18-.11-.37a.47.47,0,0,0-.37-.17,1.22,1.22,0,0,0-.33,0A8,8,0,0,0,163.19,407.64Z" style="fill:#FFFFFF"></path><path d="M162.6,408a.18.18,0,0,1-.11-.14c0-.09-.16-2.05.61-3a1.28,1.28,0,0,1,.89-.46c.47,0,.66.17.71.36.3.78-1.13,2.63-1.92,3.17l-.07,0A.14.14,0,0,1,162.6,408Zm1.33-3.22a.89.89,0,0,0-.54.32,4,4,0,0,0-.55,2.36c.79-.69,1.69-2.1,1.56-2.58,0,0-.06-.16-.37-.13l-.1,0Z" style="fill:#FFFFFF"></path><path d="M161.78,407.1,154,408.52a.63.63,0,0,0-.52.6l-.25,6.59a1.06,1.06,0,0,0,1,1.11l.22,0c2.8-.56,5.27-1.17,8.76-1.8,4.13-.75,3.17-.07,8-.88,2.93-.49,2.86-3.91,1.59-3.85-5.8.32-6.7-1.28-9.26-2.91A2.48,2.48,0,0,0,161.78,407.1Z" style="fill:#263238"></path><path d="M161.13,402.77l-.78-128-.18-21.62-27.59-1.48s-13.69,24,2.81,41.13c0,0,5.78,20.13,8,26.76,1.25,3.8.32,11,.78,14.94.44,3.67-.37,6.67-.11,14.78a118.8,118.8,0,0,0,1.08,13.39c1.42,9.58,6.26,31.88,8.46,41.8Z" style="fill:#FFFFFF"></path><path d="M161.13,402.77l-.78-128-.18-21.62-27.59-1.48s-13.69,24,2.81,41.13c0,0,5.78,20.13,8,26.76,1.25,3.8.32,11,.78,14.94.44,3.67-.37,6.67-.11,14.78a118.8,118.8,0,0,0,1.08,13.39c1.42,9.58,6.26,31.88,8.46,41.8Z" style="opacity:0.4"></path><path d="M142.73,272.76,138.49,279l-5.66,10.75a29.48,29.48,0,0,0,2.56,3s5.56,18.7,8,26.76c-2.23-17.32,3.21-44.9,3.21-44.9Z" style="opacity:0.2"></path><path d="M96.43,400.4c-.48,3.06-1,5.82-1,5.82l6,1.18,2-5.86Z" style="fill:#ffb573"></path><path d="M103,408a.18.18,0,0,1-.1-.16.16.16,0,0,1,.11-.16c.12,0,2.88-1,4-.42a.92.92,0,0,1,.45.5.64.64,0,0,1-.13.74,3.13,3.13,0,0,1-2.2.13A13.45,13.45,0,0,1,103,408Zm.59-.12c1.3.43,3.09.77,3.51.37.06-.05.13-.14,0-.38a.49.49,0,0,0-.28-.3,1.19,1.19,0,0,0-.32-.1A8,8,0,0,0,103.62,407.85Z" style="fill:#FFFFFF"></path><path d="M103,408a.18.18,0,0,1,0-.17c0-.09.59-2,1.65-2.54a1.27,1.27,0,0,1,1-.1c.46.13.56.4.53.59,0,.83-2,2-2.94,2.25h-.07A.2.2,0,0,1,103,408Zm2.42-2.51a.91.91,0,0,0-.63.09,4,4,0,0,0-1.37,2c1-.35,2.34-1.34,2.39-1.83,0,0,0-.17-.3-.25Z" style="fill:#FFFFFF"></path><path d="M102.5,406.83l-7.76-1.52a.65.65,0,0,0-.71.37l-2.64,6a1.05,1.05,0,0,0,.54,1.4.74.74,0,0,0,.21.07c2.81.5,5.33.84,8.81,1.52,4.12.81,3,1.1,7.8,2.12,2.9.61,4.09-2.6,2.88-3-5.51-1.82-5.76-3.64-7.55-6.09A2.59,2.59,0,0,0,102.5,406.83Z" style="fill:#263238"></path><path d="M103.48,402.57,146.1,281.4l7.74-20.19-25.16-11.46s-21.49,17.32-12.4,39.32c0,0-2,20.85-2.35,27.82-.22,4-.33,12.08-1.35,15.95-.94,3.57-2.78,6.07-5.5,13.71a120.3,120.3,0,0,0-3.88,12.87c-2.18,9.43-5.81,32-7.39,42Z" style="fill:#FFFFFF"></path><path d="M103.48,402.57,146.1,281.4l7.74-20.19-25.16-11.46s-21.49,17.32-12.4,39.32c0,0-2,20.85-2.35,27.82-.22,4-.33,12.08-1.35,15.95-.94,3.57-2.78,6.07-5.5,13.71a120.3,120.3,0,0,0-3.88,12.87c-2.18,9.43-5.81,32-7.39,42Z" style="opacity:0.4"></path><path d="M134.52,208.19h-3.75c1.26,2.25,6.84,9.85,13.33,9.35,6.1-.48,5.76-6.95,3.85-9.22l-3.6-.13c-2.62-1.35-2.64-4.12-2.22-6.81l-8.39-6.15C134.7,198.69,135.84,204.64,134.52,208.19Z" style="fill:#ffb573"></path><path d="M137.18,197.77l5,3.63a13.91,13.91,0,0,0-.22,2.32c-1.78-.12-4.57-1.5-4.9-3.34A7.63,7.63,0,0,1,137.18,197.77Z" style="isolation:isolate;opacity:0.2"></path><path d="M129,189.36c2.84,6.36,3.89,9.11,8.43,11.22,6.81,3.18,14-1.68,13.14-8.76-.78-6.37-5.27-15.69-12.61-15.91a9.49,9.49,0,0,0-9.81,9.16A9.6,9.6,0,0,0,129,189.36Z" style="fill:#ffb573"></path><path d="M144.3,186.76a15,15,0,0,0,3.15,2.68,2.43,2.43,0,0,1-1.75,1.07Z" style="fill:#ed893e"></path><path d="M136.16,185.77a.32.32,0,0,1-.14,0,.27.27,0,0,1-.16-.36h0a3.23,3.23,0,0,1,2.21-2,.28.28,0,0,1,.11.54,2.7,2.7,0,0,0-1.81,1.67A.28.28,0,0,1,136.16,185.77Z" style="fill:#2e353a"></path><path d="M147.43,181.67a.39.39,0,0,1-.15,0,2.65,2.65,0,0,0-2.43.24.28.28,0,0,1-.39,0h0a.29.29,0,0,1,.06-.39,3.27,3.27,0,0,1,3-.31.29.29,0,0,1,.18.35.32.32,0,0,1-.23.19Z" style="fill:#2e353a"></path><path d="M140.23,187.28c.19.53.63.85,1,.72s.46-.66.26-1.19-.64-.85-1-.72S140,186.75,140.23,187.28Z" style="fill:#2e353a"></path><path d="M146.22,185.05c.19.52.64.85,1,.72s.47-.66.27-1.19-.64-.85-1-.73S146,184.51,146.22,185.05Z" style="fill:#2e353a"></path><path d="M146.35,183.94l1.13-.84S147.2,184.33,146.35,183.94Z" style="fill:#2e353a"></path><path d="M140.36,186.17l1.13-.84S141.21,186.57,140.36,186.17Z" style="fill:#2e353a"></path><path d="M147.6,193.22a40.77,40.77,0,0,0-7.64,1.31c1,1.52,2.57,2.58,5.41,1.91a2.65,2.65,0,0,0,2.27-3A1.57,1.57,0,0,0,147.6,193.22Z" style="fill:#2e353a"></path><path d="M143.75,195.42a5.29,5.29,0,0,1,3.29.09,3.25,3.25,0,0,1-1.66.91,5.29,5.29,0,0,1-3.29-.09A3,3,0,0,1,143.75,195.42Z" style="fill:#892b29"></path><path d="M147.33,193.23a1.17,1.17,0,0,1-.67,1,31.48,31.48,0,0,1-5,.73,1.66,1.66,0,0,1-1.44-.53A48.11,48.11,0,0,1,147.33,193.23Z" style="fill:#fff"></path><path d="M146.84,208.77s4.94,7.53-3.27,7.54S132,208.77,132,208.77s-10.5-1.6-10.87,5.5,7,17.35,8.41,39.81a30.28,30.28,0,0,0,17.06,3.58c9.63-.92,13.58-4.07,13.58-4.07a86.33,86.33,0,0,1,1.09-15.19c1.34-8.52,3.6-18.78-9.29-29Z" style="fill:#263238"></path><path d="M146.84,208.77s4.94,7.53-3.27,7.54S132,208.77,132,208.77s-10.5-1.6-10.87,5.5,7,17.35,8.41,39.81a30.28,30.28,0,0,0,17.06,3.58c9.63-.92,13.58-4.07,13.58-4.07a86.33,86.33,0,0,1,1.09-15.19c1.34-8.52,3.6-18.78-9.29-29Z" style="fill:#fff;opacity:0.8"></path><path d="M143.25,186.21a3.7,3.7,0,1,1-6.86,2.79c-.77-1.9.6-2.93,2.49-3.7S142.48,184.32,143.25,186.21Z" style="fill:#263238"></path><path d="M151.42,182.9a3.7,3.7,0,0,1-6.86,2.8c-.77-1.9.6-2.93,2.49-3.71S150.64,181,151.42,182.9Z" style="fill:#263238"></path><path d="M142.65,186.58a3,3,0,0,1-5.58,2.26c-.62-1.54.49-2.38,2-3S142,185,142.65,186.58Z" style="fill:#263238"></path><path d="M150.82,183.26a3,3,0,0,1-5.57,2.28c-.63-1.54.48-2.38,2-3S150.19,181.73,150.82,183.26Z" style="fill:#263238"></path><g style="opacity:0.2"><path d="M142.65,186.58a3,3,0,0,1-5.58,2.26c-.62-1.54.49-2.38,2-3S142,185,142.65,186.58Z" style="fill:#fff"></path><path d="M150.82,183.26a3,3,0,0,1-5.57,2.28c-.63-1.54.48-2.38,2-3S150.19,181.73,150.82,183.26Z" style="fill:#fff"></path></g><path d="M145.09,185.49a1.8,1.8,0,0,0-2.36.95l-.59-1.45,2.36-1Z" style="fill:#263238"></path><polygon points="136.26 187.41 130.47 192.24 130.88 192.92 136.72 188.39 136.26 187.41" style="fill:#263238"></polygon><path d="M129.4,195.08a5,5,0,0,0,3.35,2c1.77.23,2.4-1.41,1.69-2.95-.63-1.38-2.31-3.17-4-2.69a2.3,2.3,0,0,0-1.49,2.89A2.2,2.2,0,0,0,129.4,195.08Z" style="fill:#ffb573"></path><path d="M144.37,208.11S156.33,214,159,222c3,8.87-3.16,45,3.06,67.55l7.08-2.27s-9.31-24.69-8-36.44c1.28-11.3,7.46-30.73-5.89-41a6.53,6.53,0,0,0-3.58-1.32Z" style="fill:#FFFFFF"></path><path d="M144.37,208.11S156.33,214,159,222c3,8.87-3.16,45,3.06,67.55l7.08-2.27s-9.31-24.69-8-36.44c1.28-11.3,7.46-30.73-5.89-41a6.53,6.53,0,0,0-3.58-1.32Z" style="fill:#fff;opacity:0.5"></path><path d="M153.55,208.91a7.09,7.09,0,0,0-1.82-.37l-7.36-.43S156.33,214,159,222a13.87,13.87,0,0,1,.48,2.15h0C160.29,215.33,156.52,211,153.55,208.91Z" style="fill:#FFFFFF"></path><path d="M153.55,208.91a7.09,7.09,0,0,0-1.82-.37l-7.36-.43S156.33,214,159,222a13.87,13.87,0,0,1,.48,2.15h0C160.29,215.33,156.52,211,153.55,208.91Z" style="fill:#fff;opacity:0.5"></path><path d="M134.53,208.13s-2.37.77-1.81,6.69,10.8,32.61-5.13,77.19l-13.35-3s-1.78-13.63,1-22.55,14-16,10.16-31S113.72,204.31,134.53,208.13Z" style="fill:#FFFFFF"></path><path d="M134.53,208.13s-2.37.77-1.81,6.69,10.8,32.61-5.13,77.19l-13.35-3s-1.78-13.63,1-22.55,14-16,10.16-31S113.72,204.31,134.53,208.13Z" style="fill:#fff;opacity:0.5"></path><path d="M120.78,216.6c.37,4.59,2.31,10.43,3.93,16.29h0a23.39,23.39,0,0,1,2.57-15.52Z" style="opacity:0.2"></path><path d="M92,177.33v-6.49a2,2,0,0,0-.56-1.39l-1.88-1.93a2,2,0,0,0-2.92.09l-3.38,3.9a2,2,0,0,0,0,2.55l4.31,5.3s2.4,7.82,5.24,15.68l7.36-2.51Z" style="fill:#ffb573"></path><path d="M127.05,207.57c-5.62-.23-19.16-1.44-21.59-6.24s-9.54-17.07-9.54-17.07l-6.39,2.25s5.19,21,10,24.72,28,14.49,29.07,5.29C129.12,212.44,129.32,207.66,127.05,207.57Z" style="fill:#FFFFFF"></path><path d="M127.05,207.57c-5.62-.23-19.16-1.44-21.59-6.24s-9.54-17.07-9.54-17.07l-6.39,2.25s5.19,21,10,24.72,28,14.49,29.07,5.29C129.12,212.44,129.32,207.66,127.05,207.57Z" style="fill:#fff;opacity:0.5"></path><path d="M143.52,174.85s1.11,5.71-7.83,6.58c-7.88.76,2.58,20-1.42,22.26s-7.49-13.18-7.49-13.18V180.35l2.78-4.44,4-1.56,4.8-.28Z" style="fill:#263238"></path><path d="M134.73,216.14s9.06,10.66,11.14,1.42c0,0,7.7,4.76,5.53-3.48,0,0,4.18,10.1-5.17,4.6C146.23,218.68,143.92,227.88,134.73,216.14Z" style="opacity:0.2"></path><path d="M89.51,176.2v-7.81a1.67,1.67,0,0,1,1.13-1.6A6.52,6.52,0,0,0,95,160.55a6.7,6.7,0,0,0-1.63-4.41H84.25a6.71,6.71,0,0,0-1.64,4.41A6.52,6.52,0,0,0,87,166.79a1.66,1.66,0,0,1,1.13,1.6v7.81a1.71,1.71,0,0,1-1.42,1.68c-1.41.23-2.36.68-2.36,1.21,0,.76,2,.9,4.49.9s4.48-.14,4.48-.9c0-.53-1-1-2.36-1.21A1.71,1.71,0,0,1,89.51,176.2Z" style="fill:#FFFFFF"></path><path d="M89.51,176.2v-7.81a1.67,1.67,0,0,1,1.13-1.6A6.52,6.52,0,0,0,95,160.55a6.7,6.7,0,0,0-1.63-4.41H84.25a6.71,6.71,0,0,0-1.64,4.41A6.52,6.52,0,0,0,87,166.79a1.66,1.66,0,0,1,1.13,1.6v7.81a1.71,1.71,0,0,1-1.42,1.68c-1.41.23-2.36.68-2.36,1.21,0,.76,2,.9,4.49.9s4.48-.14,4.48-.9c0-.53-1-1-2.36-1.21A1.71,1.71,0,0,1,89.51,176.2Z" style="fill:#fff;opacity:0.6000000000000001"></path><path d="M83.92,160a5.27,5.27,0,0,0,0,.56,5.21,5.21,0,0,0,3.48,5,2.83,2.83,0,0,1,1.45,1.06,2.81,2.81,0,0,1,1.44-1.06,5.22,5.22,0,0,0,3.49-5,5.29,5.29,0,0,0,0-.56Z" style="fill:#FFFFFF"></path><path d="M93.06,164.07a6.15,6.15,0,0,0,0-6.95c-.25-.37-.85,0-.6.35a5.46,5.46,0,0,1-.05,6.25c-.26.37.34.71.6.35Z" style="fill:#FFFFFF"></path><g style="opacity:0.9"><path d="M93.06,164.07a6.15,6.15,0,0,0,0-6.95c-.25-.37-.85,0-.6.35a5.46,5.46,0,0,1-.05,6.25c-.26.37.34.71.6.35Z" style="fill:#fff"></path></g><path d="M154.16,207.7s2.16,9.86-33,43.4l3.42,5.68s28.79-18.15,36.68-45.31Z" style="fill:#FFFFFF"></path><path d="M120.32,255.42s-6.71,4.93-10.13,18.2l5.06-1.28,3.89,4.14a34.9,34.9,0,0,1,5-20.13Z" style="fill:#FFFFFF"></path><path d="M123,249s1.21-4.78,2.41-4.58-.08,5-.08,5,3.37-3.78,4.25-3-2.55,4.51-2.55,4.51,4.63-1.76,5-.6-4.33,2.86-4.33,2.86,4.65.72,4.33,2-5,.44-5,.44,3.42,3,2.55,4-4.25-2.1-4.25-2.1,1.28,4.5.08,4.94-2.41-4.07-2.41-4.07-1.21,4.77-2.4,4.58.08-5,.08-5-3.37,3.77-4.25,3,2.55-4.52,2.55-4.52-4.63,1.77-4.95.61,4.33-2.86,4.33-2.86-4.65-.72-4.33-2,4.95-.44,4.95-.44-3.42-3-2.55-4,4.25,2.1,4.25,2.1-1.28-4.5-.08-4.95S123,249,123,249Z" style="fill:#FFFFFF"></path><path d="M123,249s1.21-4.78,2.41-4.58-.08,5-.08,5,3.37-3.78,4.25-3-2.55,4.51-2.55,4.51,4.63-1.76,5-.6-4.33,2.86-4.33,2.86,4.65.72,4.33,2-5,.44-5,.44,3.42,3,2.55,4-4.25-2.1-4.25-2.1,1.28,4.5.08,4.94-2.41-4.07-2.41-4.07-1.21,4.77-2.4,4.58.08-5,.08-5-3.37,3.77-4.25,3,2.55-4.52,2.55-4.52-4.63,1.77-4.95.61,4.33-2.86,4.33-2.86-4.65-.72-4.33-2,4.95-.44,4.95-.44-3.42-3-2.55-4,4.25,2.1,4.25,2.1-1.28-4.5-.08-4.95S123,249,123,249Z" style="fill:#fff;opacity:0.7000000000000001"></path><path d="M126.5,253.32a4,4,0,0,1-3.49,3.86,3.08,3.08,0,0,1-3.48-3.13A4,4,0,0,1,123,250.2,3.09,3.09,0,0,1,126.5,253.32Z" style="fill:#FFFFFF"></path><path d="M137.9,241.21a1,1,0,0,1,.53.28.84.84,0,0,1,.25.77,1.86,1.86,0,0,1-.56.92l-1.26,1.26-2.55-2.54,1.19-1.19a1.63,1.63,0,0,1,.87-.52.77.77,0,0,1,.73.24.92.92,0,0,1,.25.42.84.84,0,0,1,0,.47A1,1,0,0,1,137.9,241.21Zm-2.74.59.7.7.66-.67a1,1,0,0,0,.3-.47.44.44,0,0,0-.13-.39.42.42,0,0,0-.4-.13.94.94,0,0,0-.47.29Zm2.74.12c-.24-.24-.55-.18-.91.18l-.77.76.74.74.76-.76C138.09,242.47,138.15,242.16,137.9,241.92Z" style="fill:#FFFFFF"></path><path d="M138.65,238.65l.44.43a.52.52,0,0,0-.11.1.78.78,0,0,0-.25.57.88.88,0,0,0,.31.59l1,.92-.45.46-2-1.9.43-.44.29.28A1.08,1.08,0,0,1,138.65,238.65Z" style="fill:#FFFFFF"></path><path d="M138.64,237.9a.39.39,0,0,1-.29-.11.34.34,0,0,1-.12-.27.45.45,0,0,1,.4-.43.32.32,0,0,1,.27.09.35.35,0,0,1,.13.28.39.39,0,0,1-.11.3A.47.47,0,0,1,138.64,237.9Zm.38.4.44-.47,2,1.88-.44.47Z" style="fill:#FFFFFF"></path><path d="M141,234.56l2.83,2.56-.41.45-.26-.23a1,1,0,0,1,0,.49,1.58,1.58,0,0,1-.27.44,1.46,1.46,0,0,1-.61.42,1.28,1.28,0,0,1-.7,0,1.43,1.43,0,0,1-.67-.36,1.49,1.49,0,0,1-.42-.63,1.28,1.28,0,0,1,0-.7,1.5,1.5,0,0,1,.35-.64,1.27,1.27,0,0,1,.4-.31,1.1,1.1,0,0,1,.47-.1l-1.05-.94Zm1.68,2.91a.86.86,0,0,0,0-.42,1.07,1.07,0,0,0-.68-.61.75.75,0,0,0-.42,0,.89.89,0,0,0-.55.62.75.75,0,0,0,0,.42,1,1,0,0,0,.27.38.89.89,0,0,0,.4.22.75.75,0,0,0,.42,0,.87.87,0,0,0,.56-.62Z" style="fill:#FFFFFF"></path><path d="M145.16,233.79l-1.4,1.64a.76.76,0,0,0,.55.09,1.1,1.1,0,0,0,.78-1.1h.53a1.23,1.23,0,0,1-.05.57,1.91,1.91,0,0,1-.33.56,1.78,1.78,0,0,1-.66.49,1.28,1.28,0,0,1-.72.07,1.35,1.35,0,0,1-.68-.33,1.45,1.45,0,0,1-.43-.61,1.28,1.28,0,0,1-.05-.7,1.46,1.46,0,0,1,.34-.68,1.48,1.48,0,0,1,.6-.43,1.28,1.28,0,0,1,.7-.05,1.58,1.58,0,0,1,.68.35Zm-1.93.85a.81.81,0,0,0,.2.52l1-1.19a.72.72,0,0,0-.53-.12.8.8,0,0,0-.48.28A.78.78,0,0,0,143.23,234.64Z" style="fill:#FFFFFF"></path><path d="M146.51,233.9a1.75,1.75,0,0,1-.49.25l-.23-.5a1.3,1.3,0,0,0,.44-.22,1.82,1.82,0,0,0,.38-.35c.24-.29.28-.51.13-.63a.2.2,0,0,0-.25,0,2.16,2.16,0,0,0-.38.3,4.4,4.4,0,0,1-.44.35.78.78,0,0,1-.42.14.65.65,0,0,1-.46-.17.75.75,0,0,1-.28-.65,1.58,1.58,0,0,1,.38-.83,2.6,2.6,0,0,1,.41-.4,1.92,1.92,0,0,1,.42-.25l.22.5a1.6,1.6,0,0,0-.65.48.94.94,0,0,0-.21.39.27.27,0,0,0,.09.26.21.21,0,0,0,.26,0,1.85,1.85,0,0,0,.4-.3,3.3,3.3,0,0,1,.44-.34.72.72,0,0,1,.4-.14.62.62,0,0,1,.45.17.69.69,0,0,1,.26.64,1.6,1.6,0,0,1-.39.86A2.56,2.56,0,0,1,146.51,233.9Z" style="fill:#FFFFFF"></path><path d="M148.69,227.14a1.14,1.14,0,0,1,.9.3l1.26.94-.39.51-1.19-.89a.79.79,0,0,0-.53-.2.57.57,0,0,0-.42.26.68.68,0,0,0-.14.54.89.89,0,0,0,.37.52l1.11.84-.38.51-1.19-.89a.79.79,0,0,0-.53-.2.59.59,0,0,0-.42.25.72.72,0,0,0-.15.55.87.87,0,0,0,.38.52l1.11.84-.39.51-2.19-1.65.37-.49.28.21a1,1,0,0,1,0-.48,1.33,1.33,0,0,1,.23-.46,1.3,1.3,0,0,1,.42-.37.89.89,0,0,1,.5-.1,1.14,1.14,0,0,1,0-.55,1.43,1.43,0,0,1,.25-.55A1.15,1.15,0,0,1,148.69,227.14Z" style="fill:#FFFFFF"></path><path d="M150.35,224.69a1.14,1.14,0,0,1,.9.23l1.33.91-.34.5-.28-.19a.73.73,0,0,1,0,.44,1.31,1.31,0,0,1-.22.49,1.4,1.4,0,0,1-.39.38.78.78,0,0,1-.86,0,.72.72,0,0,1-.34-.57,1.39,1.39,0,0,1,.3-.84l.4-.58,0,0a.57.57,0,0,0-.46-.1.75.75,0,0,0-.42.33,1.59,1.59,0,0,0-.19.42,1.05,1.05,0,0,0,0,.42l-.53-.05a1.67,1.67,0,0,1,.08-.57,2.29,2.29,0,0,1,.3-.58A1.31,1.31,0,0,1,150.35,224.69Zm1.27,1.58a.61.61,0,0,0-.11-.39l-.26-.18-.38.54c-.21.31-.21.53,0,.67a.32.32,0,0,0,.31,0,.6.6,0,0,0,.3-.26A.82.82,0,0,0,151.62,226.27Z" style="fill:#FFFFFF"></path><path d="M150.28,223.3a.35.35,0,0,1-.3-.05.37.37,0,0,1-.17-.25.48.48,0,0,1,.07-.3.43.43,0,0,1,.25-.19.35.35,0,0,1,.28,0,.37.37,0,0,1,.18.25.46.46,0,0,1-.06.32A.41.41,0,0,1,150.28,223.3Zm.45.33.35-.54,2.31,1.49-.35.54Z" style="fill:#FFFFFF"></path><path d="M152,219.57l3.27,2-.31.53-.31-.18a.87.87,0,0,1,.05.48,1.21,1.21,0,0,1-.18.5,1.52,1.52,0,0,1-.52.52,1.32,1.32,0,0,1-.68.17,1.52,1.52,0,0,1-.72-.23,1.45,1.45,0,0,1-.54-.53,1.25,1.25,0,0,1-.17-.68,1.44,1.44,0,0,1,.22-.7,1.23,1.23,0,0,1,.33-.38,1.07,1.07,0,0,1,.44-.19l-1.21-.72Zm2.21,2.53a.74.74,0,0,0-.11-.41.79.79,0,0,0-.33-.32.93.93,0,0,0-.44-.15.8.8,0,0,0-.41.1.86.86,0,0,0-.3.3.82.82,0,0,0-.13.41.74.74,0,0,0,.11.41.87.87,0,0,0,.33.33,1.08,1.08,0,0,0,.44.14.81.81,0,0,0,.72-.4A.78.78,0,0,0,154.19,222.1Z" style="fill:#FFFFFF"></path><g style="opacity:0.8"><path d="M137.9,241.21a1,1,0,0,1,.53.28.84.84,0,0,1,.25.77,1.86,1.86,0,0,1-.56.92l-1.26,1.26-2.55-2.54,1.19-1.19a1.63,1.63,0,0,1,.87-.52.77.77,0,0,1,.73.24.92.92,0,0,1,.25.42.84.84,0,0,1,0,.47A1,1,0,0,1,137.9,241.21Zm-2.74.59.7.7.66-.67a1,1,0,0,0,.3-.47.44.44,0,0,0-.13-.39.42.42,0,0,0-.4-.13.94.94,0,0,0-.47.29Zm2.74.12c-.24-.24-.55-.18-.91.18l-.77.76.74.74.76-.76C138.09,242.47,138.15,242.16,137.9,241.92Z" style="fill:#fff"></path><path d="M138.65,238.65l.44.43a.52.52,0,0,0-.11.1.78.78,0,0,0-.25.57.88.88,0,0,0,.31.59l1,.92-.45.46-2-1.9.43-.44.29.28A1.08,1.08,0,0,1,138.65,238.65Z" style="fill:#fff"></path><path d="M138.64,237.9a.39.39,0,0,1-.29-.11.34.34,0,0,1-.12-.27.45.45,0,0,1,.4-.43.32.32,0,0,1,.27.09.35.35,0,0,1,.13.28.39.39,0,0,1-.11.3A.47.47,0,0,1,138.64,237.9Zm.38.4.44-.47,2,1.88-.44.47Z" style="fill:#fff"></path><path d="M141,234.56l2.83,2.56-.41.45-.26-.23a1,1,0,0,1,0,.49,1.58,1.58,0,0,1-.27.44,1.46,1.46,0,0,1-.61.42,1.28,1.28,0,0,1-.7,0,1.43,1.43,0,0,1-.67-.36,1.49,1.49,0,0,1-.42-.63,1.28,1.28,0,0,1,0-.7,1.5,1.5,0,0,1,.35-.64,1.27,1.27,0,0,1,.4-.31,1.1,1.1,0,0,1,.47-.1l-1.05-.94Zm1.68,2.91a.86.86,0,0,0,0-.42,1.07,1.07,0,0,0-.68-.61.75.75,0,0,0-.42,0,.89.89,0,0,0-.55.62.75.75,0,0,0,0,.42,1,1,0,0,0,.27.38.89.89,0,0,0,.4.22.75.75,0,0,0,.42,0,.87.87,0,0,0,.56-.62Z" style="fill:#fff"></path><path d="M145.16,233.79l-1.4,1.64a.76.76,0,0,0,.55.09,1.1,1.1,0,0,0,.78-1.1h.53a1.23,1.23,0,0,1-.05.57,1.91,1.91,0,0,1-.33.56,1.78,1.78,0,0,1-.66.49,1.28,1.28,0,0,1-.72.07,1.35,1.35,0,0,1-.68-.33,1.45,1.45,0,0,1-.43-.61,1.28,1.28,0,0,1-.05-.7,1.46,1.46,0,0,1,.34-.68,1.48,1.48,0,0,1,.6-.43,1.28,1.28,0,0,1,.7-.05,1.58,1.58,0,0,1,.68.35Zm-1.93.85a.81.81,0,0,0,.2.52l1-1.19a.72.72,0,0,0-.53-.12.8.8,0,0,0-.48.28A.78.78,0,0,0,143.23,234.64Z" style="fill:#fff"></path><path d="M146.51,233.9a1.75,1.75,0,0,1-.49.25l-.23-.5a1.3,1.3,0,0,0,.44-.22,1.82,1.82,0,0,0,.38-.35c.24-.29.28-.51.13-.63a.2.2,0,0,0-.25,0,2.16,2.16,0,0,0-.38.3,4.4,4.4,0,0,1-.44.35.78.78,0,0,1-.42.14.65.65,0,0,1-.46-.17.75.75,0,0,1-.28-.65,1.58,1.58,0,0,1,.38-.83,2.6,2.6,0,0,1,.41-.4,1.92,1.92,0,0,1,.42-.25l.22.5a1.6,1.6,0,0,0-.65.48.94.94,0,0,0-.21.39.27.27,0,0,0,.09.26.21.21,0,0,0,.26,0,1.85,1.85,0,0,0,.4-.3,3.3,3.3,0,0,1,.44-.34.72.72,0,0,1,.4-.14.62.62,0,0,1,.45.17.69.69,0,0,1,.26.64,1.6,1.6,0,0,1-.39.86A2.56,2.56,0,0,1,146.51,233.9Z" style="fill:#fff"></path><path d="M148.69,227.14a1.14,1.14,0,0,1,.9.3l1.26.94-.39.51-1.19-.89a.79.79,0,0,0-.53-.2.57.57,0,0,0-.42.26.68.68,0,0,0-.14.54.89.89,0,0,0,.37.52l1.11.84-.38.51-1.19-.89a.79.79,0,0,0-.53-.2.59.59,0,0,0-.42.25.72.72,0,0,0-.15.55.87.87,0,0,0,.38.52l1.11.84-.39.51-2.19-1.65.37-.49.28.21a1,1,0,0,1,0-.48,1.33,1.33,0,0,1,.23-.46,1.3,1.3,0,0,1,.42-.37.89.89,0,0,1,.5-.1,1.14,1.14,0,0,1,0-.55,1.43,1.43,0,0,1,.25-.55A1.15,1.15,0,0,1,148.69,227.14Z" style="fill:#fff"></path><path d="M150.35,224.69a1.14,1.14,0,0,1,.9.23l1.33.91-.34.5-.28-.19a.73.73,0,0,1,0,.44,1.31,1.31,0,0,1-.22.49,1.4,1.4,0,0,1-.39.38.78.78,0,0,1-.86,0,.72.72,0,0,1-.34-.57,1.39,1.39,0,0,1,.3-.84l.4-.58,0,0a.57.57,0,0,0-.46-.1.75.75,0,0,0-.42.33,1.59,1.59,0,0,0-.19.42,1.05,1.05,0,0,0,0,.42l-.53-.05a1.67,1.67,0,0,1,.08-.57,2.29,2.29,0,0,1,.3-.58A1.31,1.31,0,0,1,150.35,224.69Zm1.27,1.58a.61.61,0,0,0-.11-.39l-.26-.18-.38.54c-.21.31-.21.53,0,.67a.32.32,0,0,0,.31,0,.6.6,0,0,0,.3-.26A.82.82,0,0,0,151.62,226.27Z" style="fill:#fff"></path><path d="M150.28,223.3a.35.35,0,0,1-.3-.05.37.37,0,0,1-.17-.25.48.48,0,0,1,.07-.3.43.43,0,0,1,.25-.19.35.35,0,0,1,.28,0,.37.37,0,0,1,.18.25.46.46,0,0,1-.06.32A.41.41,0,0,1,150.28,223.3Zm.45.33.35-.54,2.31,1.49-.35.54Z" style="fill:#fff"></path><path d="M152,219.57l3.27,2-.31.53-.31-.18a.87.87,0,0,1,.05.48,1.21,1.21,0,0,1-.18.5,1.52,1.52,0,0,1-.52.52,1.32,1.32,0,0,1-.68.17,1.52,1.52,0,0,1-.72-.23,1.45,1.45,0,0,1-.54-.53,1.25,1.25,0,0,1-.17-.68,1.44,1.44,0,0,1,.22-.7,1.23,1.23,0,0,1,.33-.38,1.07,1.07,0,0,1,.44-.19l-1.21-.72Zm2.21,2.53a.74.74,0,0,0-.11-.41.79.79,0,0,0-.33-.32.93.93,0,0,0-.44-.15.8.8,0,0,0-.41.1.86.86,0,0,0-.3.3.82.82,0,0,0-.13.41.74.74,0,0,0,.11.41.87.87,0,0,0,.33.33,1.08,1.08,0,0,0,.44.14.81.81,0,0,0,.72-.4A.78.78,0,0,0,154.19,222.1Z" style="fill:#fff"></path></g></g><g id="freepik--character-2--inject-4"><path d="M214.35,181.58s-10.44.33-9.87,15.21S198.65,219,198.65,219s7.37,1.77,18.12-2.64,8.19,1.14,20,.57c0,0-4.69-4.35-3.84-13.34S232.36,172.42,214.35,181.58Z" style="fill:#263238"></path><path d="M238.62,266.18s-1.13,36.62-6.46,64.21C230.89,353.73,219,405.06,219,405.06c-3,.59-4.15.69-6.65-.07a343.35,343.35,0,0,1-.24-49.67c.58-8.39,2.32-16.43,3.64-25.33-4.08-39.3-7-63.81-7-63.81Z" style="fill:#b55b52"></path><path d="M229,413.37c-6.28-.48-9.66-4.8-9.22-9.37.25-2.52-7.81-2.74-7.81-2.74,1.28,7.81-1.18,8.93-1.7,10.95s-.4,4.25,1.27,4.29c2,.05,2.92-.33,5.4-.24,2.9.12,6,.23,11.19.24C230.19,416.5,231.8,413.59,229,413.37Z" style="fill:#263238"></path><path d="M227.76,266.18s-13,50.89-20.6,72.63c-8,22.82-32.47,58.05-33.32,59.56-3.15-.84-3.4-1.09-5.27-2.92,0,0,2.93-7.11,6.13-17.18,4.05-12.76,9.89-30.29,15.55-44.15,3.85-51.74,15.15-67.94,15.15-67.94Z" style="fill:#b55b52"></path><path d="M260.14,217.65l0-3a6.28,6.28,0,0,1,.87-3.13l1.06-1.8a2.85,2.85,0,0,1,3.43-1.23l2,.71a2.84,2.84,0,0,1,1.69,3.69l-.62,1.65s-1.18,4.79-4.24,7.26l-1-.45A5.38,5.38,0,0,1,260.14,217.65Z" style="fill:#b55b52"></path><path d="M264.49,215.55a2.78,2.78,0,0,0-3.74,1.2l0,.08c-1.8,3.51-3.58,7.11-5.47,10.45a48,48,0,0,1-2.92,4.66,13.16,13.16,0,0,1-1.1,1.36l-.23,0a9.52,9.52,0,0,1-1-.23,15.11,15.11,0,0,1-2.05-.71,20.63,20.63,0,0,1-4-2.38,31.85,31.85,0,0,1-3.77-3.36c-.6-.61-1.17-1.26-1.74-1.91l-.81-1-.39-.49-.29-.39-.24-.3a5.54,5.54,0,0,0-9,6.41c.26.38.39.58.58.84l.52.73c.35.48.72.92,1.09,1.37.73.9,1.52,1.75,2.33,2.57a35.62,35.62,0,0,0,5.44,4.51,27,27,0,0,0,6.65,3.31,21.53,21.53,0,0,0,3.78.93,18.51,18.51,0,0,0,2,.2c.33,0,.66,0,1,0h1.24a7,7,0,0,0,2.44-.6,8,8,0,0,0,1.58-.93,10.51,10.51,0,0,0,1.87-1.82,20.77,20.77,0,0,0,2.12-3.25,44.56,44.56,0,0,0,2.62-6.11A74.73,74.73,0,0,0,266,218.47,2.8,2.8,0,0,0,264.49,215.55Z" style="fill:#b55b52"></path><path d="M240.32,230.53c-.13,3,4.57,9.86-1.23,13.85,1.08,2.43,2,18.86-.2,21.8-3.2,2.36-20.54,1.9-34.92,0-.61-5.94,2.66-18.25-1.34-37.45a7.65,7.65,0,0,1,6.72-9.18c1.21-.12,2.49-.22,3.8-.29a98.48,98.48,0,0,1,13.75,0c1.49.14,3,.33,4.49.53A10.4,10.4,0,0,1,240.32,230.53Z" style="fill:#263238"></path><path d="M212.73,203.78c1.1,4.42,2.17,11.64.42,15.48,0,0,6.53.29,14.88,7,3.93-5.78-.62-6.91-.62-6.91-3.47-.81-4-5-4-8.32Z" style="fill:#b55b52"></path><path d="M223.4,211l-6.07-4.1a5.36,5.36,0,0,0,.54,2.69,11.59,11.59,0,0,0,5.88,5.26A18.09,18.09,0,0,1,223.4,211Z" style="opacity:0.2"></path><path d="M209.85,195.66c1.72,7.2,2.3,10.28,6.57,13.38,6.41,4.65,14.7,1,15.11-6.59.38-6.8-2.51-17.43-10-19.09S208.12,188.46,209.85,195.66Z" style="fill:#b55b52"></path><path d="M221.43,197.15c.14.58.56,1,.94.9s.59-.63.45-1.22-.55-1-.93-.9S221.3,196.56,221.43,197.15Z" style="fill:#263238"></path><path d="M228.67,195.62c.14.58.55,1,.94.9s.58-.63.45-1.22-.55-1-.93-.9S228.54,195,228.67,195.62Z" style="fill:#263238"></path><path d="M229,194.47l1.32-.73S229.81,195,229,194.47Z" style="fill:#263238"></path><path d="M227.41,197.89a16.11,16.11,0,0,0,2.78,3.4,2.58,2.58,0,0,1-2,.77Z" style="fill:#a02724"></path><path d="M223.89,204.93a6,6,0,0,0,1-.09.18.18,0,0,0,.15-.2.19.19,0,0,0-.21-.15,4.79,4.79,0,0,1-4.15-1.15.17.17,0,0,0-.25,0,.18.18,0,0,0,0,.25A5,5,0,0,0,223.89,204.93Z" style="fill:#263238"></path><path d="M219.79,195.24a.34.34,0,0,0,.21-.18,2.81,2.81,0,0,1,2-1.58.36.36,0,0,0-.08-.71,3.51,3.51,0,0,0-2.55,2,.35.35,0,0,0,.16.48A.39.39,0,0,0,219.79,195.24Z" style="fill:#263238"></path><path d="M230.84,192.83a.34.34,0,0,0,.22-.13.36.36,0,0,0-.06-.5,3.54,3.54,0,0,0-3.17-.63.36.36,0,0,0-.21.46.35.35,0,0,0,.45.21,2.82,2.82,0,0,1,2.5.53A.33.33,0,0,0,230.84,192.83Z" style="fill:#263238"></path><path d="M221.73,196l1.31-.73S222.57,196.54,221.73,196Z" style="fill:#263238"></path><path d="M203.32,232.45a93.12,93.12,0,0,1,1.28,12.34c3.3-4.59,7.92-14.61,7.7-18.5Z" style="opacity:0.4"></path><path d="M179.64,229.06l-3-4-5.49,6.09s3.66,3.29,7.49,3.62l.55-.92A5.41,5.41,0,0,0,179.64,229.06Z" style="fill:#b55b52"></path><path d="M171.15,224.77l-1.62,2.35a2.38,2.38,0,0,0,.59,3.3l1,.73,5.49-6.09-2.6-1.13A2.4,2.4,0,0,0,171.15,224.77Z" style="fill:#b55b52"></path><path d="M210.05,220.89a5.55,5.55,0,0,0-7.35,2.73l-.12.25-.47,1-.54,1.13c-.37.75-.74,1.51-1.14,2.25-.78,1.49-1.62,2.93-2.5,4.31a26.49,26.49,0,0,1-5.91,6.8l-.14.1a19.67,19.67,0,0,1-3.7-2.41c-2.67-2.07-5.34-4.63-8-7.05l-.08-.08a2.79,2.79,0,0,0-4.38,3.29,49.09,49.09,0,0,0,2.95,5.1,48.3,48.3,0,0,0,3.58,4.81,24.74,24.74,0,0,0,4.92,4.52,12.46,12.46,0,0,0,1.87,1,9.27,9.27,0,0,0,2.66.76,7.73,7.73,0,0,0,3.84-.52l.49-.23.21-.11.41-.21c.27-.14.55-.29.8-.44a26.55,26.55,0,0,0,5.41-4.23,39.24,39.24,0,0,0,4.14-4.9,50.66,50.66,0,0,0,3.27-5.24c.49-.9,1-1.81,1.38-2.74.22-.46.44-.93.64-1.41s.38-.91.61-1.54A5.55,5.55,0,0,0,210.05,220.89Z" style="fill:#b55b52"></path><path d="M231,344.82c.71-5.39,1.23-10.34,1.45-14.43,5.34-27.59,6.46-64.21,6.46-64.21H204s-13,15.35-16.86,67.09c-1.15,2.81-2.28,5.77-3.39,8.81C183.72,342.08,201.57,352.29,231,344.82Z" style="fill:#263238"></path><path d="M219,267a44.78,44.78,0,0,0,17.89,0S233.12,274.82,219,267Z" style="opacity:0.4"></path><path d="M163.59,401.29a36.81,36.81,0,0,0,5.79-8.21s7.19,1.77,5.78,3.84c-2.57,3.77-3.82,11.5-.51,15.64,1.88,2.37-1.1,2.76-3.07,1.75-3.13-1.61-3-2.21-4.63-4.87-1.39-2.28-1.94-3.17-3.86-4.15C161.49,404.48,162.27,402.9,163.59,401.29Z" style="fill:#263238"></path><path d="M215.6,341.11s-12.12,2-4.58-22.6,12.73-32.59,12.73-32.59S206.1,327.17,215.6,341.11Z" style="opacity:0.4"></path><path d="M265.46,217v-7.78a1.66,1.66,0,0,1,1.12-1.6,6.46,6.46,0,0,0,4.34-6.21,6.72,6.72,0,0,0-1.62-4.4h-9.09a6.67,6.67,0,0,0-1.62,4.4,6.46,6.46,0,0,0,4.34,6.21,1.66,1.66,0,0,1,1.12,1.6V217a1.7,1.7,0,0,1-1.41,1.67c-1.4.23-2.36.69-2.36,1.21,0,.76,2,.9,4.47.9s4.48-.14,4.48-.9c0-.52-1-1-2.36-1.21A1.7,1.7,0,0,1,265.46,217Z" style="fill:#FFFFFF"></path><path d="M265.46,217v-7.78a1.66,1.66,0,0,1,1.12-1.6,6.46,6.46,0,0,0,4.34-6.21,6.72,6.72,0,0,0-1.62-4.4h-9.09a6.67,6.67,0,0,0-1.62,4.4,6.46,6.46,0,0,0,4.34,6.21,1.66,1.66,0,0,1,1.12,1.6V217a1.7,1.7,0,0,1-1.41,1.67c-1.4.23-2.36.69-2.36,1.21,0,.76,2,.9,4.47.9s4.48-.14,4.48-.9c0-.52-1-1-2.36-1.21A1.7,1.7,0,0,1,265.46,217Z" style="fill:#fff;opacity:0.6000000000000001"></path><path d="M259.89,200.81a5.07,5.07,0,0,0-.05.56,5.2,5.2,0,0,0,3.48,5,2.82,2.82,0,0,1,1.43,1.05,2.89,2.89,0,0,1,1.44-1.05,5.2,5.2,0,0,0,3.48-5,5.07,5.07,0,0,0-.05-.56Z" style="fill:#FFFFFF"></path><path d="M269,204.87A6.1,6.1,0,0,0,269,198c-.24-.37-.84,0-.6.35a5.41,5.41,0,0,1-.05,6.22c-.25.37.35.72.6.35Z" style="fill:#FFFFFF"></path><g style="opacity:0.9"><path d="M269,204.87A6.1,6.1,0,0,0,269,198c-.24-.37-.84,0-.6.35a5.41,5.41,0,0,1-.05,6.22c-.25.37.35.72.6.35Z" style="fill:#fff"></path></g><path d="M227.06,189.57a6.13,6.13,0,0,0-1.78-3.6,4.9,4.9,0,0,1,2.72,3.6,9.34,9.34,0,0,1,2.38.35c-5.34-12.17-14.59-6.8-14.59-6.8-8.68,2.59-7.89,7.93-6.24,13.67a23.38,23.38,0,0,1,0,11.5c5.07-.69,4.8-8.37,4.8-8.37,6.32-2.95,3-11.28,3-11.28a3.76,3.76,0,0,1,2.21,3.62A13.8,13.8,0,0,1,227.06,189.57Z" style="fill:#263238"></path><path d="M210.9,200s-3.77-10.81,5.76-15.79,12.87,4,12.87,4S226.09,177,214.35,183c-10.37,5.24-4.08,18.67-4.08,18.67Z" style="fill:#FFFFFF"></path><path d="M210.9,200s-3.77-10.81,5.76-15.79,12.87,4,12.87,4S226.09,177,214.35,183c-10.37,5.24-4.08,18.67-4.08,18.67Z" style="fill:#fff;opacity:0.6000000000000001"></path><path d="M209.32,202.36a4.75,4.75,0,0,0,2.92,2.61c1.64.45,2.45-1.35,2-3.18-.41-1.64-1.77-3.86-3.42-3.5S208.56,200.75,209.32,202.36Z" style="fill:#b55b52"></path><path d="M215.46,173.44h1.63a2.88,2.88,0,0,1,2.88,2.88v6.22a0,0,0,0,1,0,0h-7.4a0,0,0,0,1,0,0v-6.22A2.88,2.88,0,0,1,215.46,173.44Z" transform="translate(-42.56 70.93) rotate(-16.98)" style="fill:#FFFFFF"></path><rect x="213.41" y="179.51" width="7.4" height="2.42" transform="translate(-43.32 71.29) rotate(-16.98)" style="fill:#fff;opacity:0.5"></rect><polygon points="221.71 181.87 213.93 184.25 211.97 182.25 222.22 179.12 221.71 181.87" style="fill:#FFFFFF"></polygon><path d="M235.2,220.38s5.77,8.35-33.71,45.8l3.42,6.52s27.75-18.33,36.54-46Z" style="fill:#FFFFFF"></path><path d="M200.64,270.49s-6.68,4.91-10.1,18.14l5.05-1.28,3.87,4.12a34.72,34.72,0,0,1,5-20.05Z" style="fill:#FFFFFF"></path><path d="M203.32,264.14s1.21-4.76,2.4-4.57-.08,4.94-.08,4.94,3.36-3.76,4.23-3-2.54,4.5-2.54,4.5,4.62-1.76,4.94-.6-4.32,2.85-4.32,2.85,4.64.72,4.32,1.94-4.94.44-4.94.44,3.41,3,2.54,4-4.23-2.09-4.23-2.09,1.27,4.48.08,4.93-2.4-4.07-2.4-4.07-1.2,4.76-2.39,4.57S201,273,201,273s-3.36,3.76-4.23,3,2.53-4.5,2.53-4.5-4.61,1.76-4.93.6,4.31-2.85,4.31-2.85-4.63-.72-4.31-1.94,4.93-.44,4.93-.44-3.41-3-2.53-4S201,265,201,265s-1.27-4.48-.08-4.93S203.32,264.14,203.32,264.14Z" style="fill:#FFFFFF"></path><path d="M203.32,264.14s1.21-4.76,2.4-4.57-.08,4.94-.08,4.94,3.36-3.76,4.23-3-2.54,4.5-2.54,4.5,4.62-1.76,4.94-.6-4.32,2.85-4.32,2.85,4.64.72,4.32,1.94-4.94.44-4.94.44,3.41,3,2.54,4-4.23-2.09-4.23-2.09,1.27,4.48.08,4.93-2.4-4.07-2.4-4.07-1.2,4.76-2.39,4.57S201,273,201,273s-3.36,3.76-4.23,3,2.53-4.5,2.53-4.5-4.61,1.76-4.93.6,4.31-2.85,4.31-2.85-4.63-.72-4.31-1.94,4.93-.44,4.93-.44-3.41-3-2.53-4S201,265,201,265s-1.27-4.48-.08-4.93S203.32,264.14,203.32,264.14Z" style="fill:#fff;opacity:0.5"></path><path d="M206.8,268.4a4,4,0,0,1-3.48,3.84,3.07,3.07,0,0,1-3.47-3.11,4,4,0,0,1,3.47-3.84A3.07,3.07,0,0,1,206.8,268.4Z" style="fill:#FFFFFF"></path><path d="M218.15,256.34a.88.88,0,0,1,.53.27.84.84,0,0,1,.25.77,1.76,1.76,0,0,1-.56.91l-1.26,1.26L214.58,257l1.19-1.19a1.58,1.58,0,0,1,.86-.51.78.78,0,0,1,.73.24.83.83,0,0,1,.25.42.9.9,0,0,1,0,.46A1,1,0,0,1,218.15,256.34Zm-2.73.58.7.7.66-.67a.9.9,0,0,0,.29-.47.42.42,0,0,0-.12-.39.44.44,0,0,0-.4-.13,1,1,0,0,0-.46.29Zm2.74.12c-.25-.24-.55-.18-.92.18l-.76.76.74.73L218,258C218.34,257.59,218.4,257.28,218.16,257Z" style="fill:#FFFFFF"></path><path d="M218.9,253.79l.44.42a.52.52,0,0,0-.11.1.78.78,0,0,0-.25.57.86.86,0,0,0,.31.58l1,.92-.44.46-2-1.89.42-.44.29.28A1.06,1.06,0,0,1,218.9,253.79Z" style="fill:#FFFFFF"></path><path d="M218.89,253a.36.36,0,0,1-.28-.1.37.37,0,0,1-.12-.27.45.45,0,0,1,.39-.43.35.35,0,0,1,.28.09.38.38,0,0,1,.12.28.36.36,0,0,1-.11.29A.42.42,0,0,1,218.89,253Zm.38.41.44-.47,2,1.87-.44.47Z" style="fill:#FFFFFF"></path><path d="M221.25,249.71l2.82,2.55-.42.45-.26-.24a1,1,0,0,1,0,.49,1.35,1.35,0,0,1-.28.45,1.44,1.44,0,0,1-.6.41,1.19,1.19,0,0,1-.7,0,1.35,1.35,0,0,1-.66-.36,1.43,1.43,0,0,1-.43-.62,1.28,1.28,0,0,1,0-.7,1.4,1.4,0,0,1,.35-.64,1.31,1.31,0,0,1,.4-.31,1,1,0,0,1,.46-.1l-1-.94Zm1.67,2.9a.76.76,0,0,0,0-.42.87.87,0,0,0-.26-.38.94.94,0,0,0-.41-.23.81.81,0,0,0-.41,0,.72.72,0,0,0-.36.24.82.82,0,0,0-.2.38.73.73,0,0,0,0,.41.79.79,0,0,0,.26.38.91.91,0,0,0,.4.23.74.74,0,0,0,.42,0,.76.76,0,0,0,.36-.24A.84.84,0,0,0,222.92,252.61Z" style="fill:#FFFFFF"></path><path d="M225.38,248.94,224,250.57a.72.72,0,0,0,.55.09.9.9,0,0,0,.52-.33,1,1,0,0,0,.26-.76h.52a1.13,1.13,0,0,1-.05.57,1.52,1.52,0,0,1-.33.55,1.67,1.67,0,0,1-.65.49,1.38,1.38,0,0,1-.72.08,1.51,1.51,0,0,1-.67-.33,1.4,1.4,0,0,1-.43-.61,1.32,1.32,0,0,1-.05-.71,1.56,1.56,0,0,1,.33-.67,1.5,1.5,0,0,1,.6-.42,1.2,1.2,0,0,1,.7-.05,1.56,1.56,0,0,1,.68.34Zm-1.92.85a.76.76,0,0,0,.2.51l1-1.18a.72.72,0,0,0-.53-.12.8.8,0,0,0-.48.28A.76.76,0,0,0,223.46,249.79Z" style="fill:#FFFFFF"></path><path d="M226.73,249.05a1.75,1.75,0,0,1-.49.25l-.22-.5a1.35,1.35,0,0,0,.43-.22,1.57,1.57,0,0,0,.38-.34c.24-.3.28-.51.13-.64a.21.21,0,0,0-.25,0,2.55,2.55,0,0,0-.38.29,3.7,3.7,0,0,1-.44.36,1,1,0,0,1-.41.14.66.66,0,0,1-.46-.18.73.73,0,0,1-.28-.64,1.47,1.47,0,0,1,.38-.83,3,3,0,0,1,.4-.4,1.44,1.44,0,0,1,.43-.24l.22.49a1.6,1.6,0,0,0-.65.48.94.94,0,0,0-.21.39.25.25,0,0,0,.08.25.22.22,0,0,0,.27,0,3.7,3.7,0,0,0,.4-.3,3.5,3.5,0,0,1,.43-.35.82.82,0,0,1,.4-.13.61.61,0,0,1,.45.16.74.74,0,0,1,.26.65,1.58,1.58,0,0,1-.39.85A2.56,2.56,0,0,1,226.73,249.05Z" style="fill:#FFFFFF"></path><path d="M228.9,242.31a1.22,1.22,0,0,1,.9.3l1.26.94-.39.51-1.19-.89a.82.82,0,0,0-.52-.2.57.57,0,0,0-.42.26.64.64,0,0,0-.14.54.85.85,0,0,0,.37.52l1.11.83-.39.51-1.19-.89a.75.75,0,0,0-.52-.19.56.56,0,0,0-.42.25.71.71,0,0,0-.15.54.87.87,0,0,0,.38.52l1.1.83-.38.52-2.19-1.64.37-.49.28.21a1,1,0,0,1,0-.48,1.37,1.37,0,0,1,.23-.47,1.39,1.39,0,0,1,.42-.36.89.89,0,0,1,.5-.1,1.14,1.14,0,0,1,0-.55,1.5,1.5,0,0,1,.26-.54A1.11,1.11,0,0,1,228.9,242.31Z" style="fill:#FFFFFF"></path><path d="M230.56,239.88a1.1,1.1,0,0,1,.9.23l1.32.9-.34.5-.27-.19a.78.78,0,0,1,0,.43,1.24,1.24,0,0,1-.22.49,1.29,1.29,0,0,1-.38.39,1,1,0,0,1-.45.13.81.81,0,0,1-.42-.14.72.72,0,0,1-.33-.56,1.39,1.39,0,0,1,.3-.84l.4-.58,0,0a.54.54,0,0,0-.46-.11.79.79,0,0,0-.42.33,1.59,1.59,0,0,0-.19.42,1.05,1.05,0,0,0-.05.42l-.53-.05a1.47,1.47,0,0,1,.09-.57,2.1,2.1,0,0,1,.29-.58A1.33,1.33,0,0,1,230.56,239.88Zm1.26,1.57a.51.51,0,0,0-.11-.39l-.26-.18-.37.54c-.21.31-.21.53,0,.67a.32.32,0,0,0,.3,0,.78.78,0,0,0,.45-.68Z" style="fill:#FFFFFF"></path><path d="M230.48,238.49a.34.34,0,0,1-.29-.05.37.37,0,0,1-.17-.24.49.49,0,0,1,.07-.31.43.43,0,0,1,.25-.19.32.32,0,0,1,.28.05.35.35,0,0,1,.18.25.44.44,0,0,1-.06.31A.43.43,0,0,1,230.48,238.49Zm.46.33.35-.54,2.3,1.48-.35.54Z" style="fill:#FFFFFF"></path><path d="M232.19,234.77l3.25,2-.31.52-.31-.18a.91.91,0,0,1,.05.49,1.22,1.22,0,0,1-.18.49,1.5,1.5,0,0,1-.51.52,1.35,1.35,0,0,1-.68.17,1.49,1.49,0,0,1-.72-.23,1.45,1.45,0,0,1-.54-.53,1.35,1.35,0,0,1-.17-.68,1.47,1.47,0,0,1,.22-.69,1.37,1.37,0,0,1,.33-.38,1.07,1.07,0,0,1,.44-.19l-1.2-.72Zm2.2,2.52a.8.8,0,0,0-.11-.4,1,1,0,0,0-.33-.33,1,1,0,0,0-.44-.14.8.8,0,0,0-.41.1.79.79,0,0,0-.3.3.9.9,0,0,0-.13.41.71.71,0,0,0,.11.4.87.87,0,0,0,.33.33,1,1,0,0,0,.44.14.83.83,0,0,0,.41-.1.86.86,0,0,0,.3-.3A.9.9,0,0,0,234.39,237.29Z" style="fill:#FFFFFF"></path><g style="opacity:0.8"><path d="M218.15,256.34a.88.88,0,0,1,.53.27.84.84,0,0,1,.25.77,1.76,1.76,0,0,1-.56.91l-1.26,1.26L214.58,257l1.19-1.19a1.58,1.58,0,0,1,.86-.51.78.78,0,0,1,.73.24.83.83,0,0,1,.25.42.9.9,0,0,1,0,.46A1,1,0,0,1,218.15,256.34Zm-2.73.58.7.7.66-.67a.9.9,0,0,0,.29-.47.42.42,0,0,0-.12-.39.44.44,0,0,0-.4-.13,1,1,0,0,0-.46.29Zm2.74.12c-.25-.24-.55-.18-.92.18l-.76.76.74.73L218,258C218.34,257.59,218.4,257.28,218.16,257Z" style="fill:#fff"></path><path d="M218.9,253.79l.44.42a.52.52,0,0,0-.11.1.78.78,0,0,0-.25.57.86.86,0,0,0,.31.58l1,.92-.44.46-2-1.89.42-.44.29.28A1.06,1.06,0,0,1,218.9,253.79Z" style="fill:#fff"></path><path d="M218.89,253a.36.36,0,0,1-.28-.1.37.37,0,0,1-.12-.27.45.45,0,0,1,.39-.43.35.35,0,0,1,.28.09.38.38,0,0,1,.12.28.36.36,0,0,1-.11.29A.42.42,0,0,1,218.89,253Zm.38.41.44-.47,2,1.87-.44.47Z" style="fill:#fff"></path><path d="M221.25,249.71l2.82,2.55-.42.45-.26-.24a1,1,0,0,1,0,.49,1.35,1.35,0,0,1-.28.45,1.44,1.44,0,0,1-.6.41,1.19,1.19,0,0,1-.7,0,1.35,1.35,0,0,1-.66-.36,1.43,1.43,0,0,1-.43-.62,1.28,1.28,0,0,1,0-.7,1.4,1.4,0,0,1,.35-.64,1.31,1.31,0,0,1,.4-.31,1,1,0,0,1,.46-.1l-1-.94Zm1.67,2.9a.76.76,0,0,0,0-.42.87.87,0,0,0-.26-.38.94.94,0,0,0-.41-.23.81.81,0,0,0-.41,0,.72.72,0,0,0-.36.24.82.82,0,0,0-.2.38.73.73,0,0,0,0,.41.79.79,0,0,0,.26.38.91.91,0,0,0,.4.23.74.74,0,0,0,.42,0,.76.76,0,0,0,.36-.24A.84.84,0,0,0,222.92,252.61Z" style="fill:#fff"></path><path d="M225.38,248.94,224,250.57a.72.72,0,0,0,.55.09.9.9,0,0,0,.52-.33,1,1,0,0,0,.26-.76h.52a1.13,1.13,0,0,1-.05.57,1.52,1.52,0,0,1-.33.55,1.67,1.67,0,0,1-.65.49,1.38,1.38,0,0,1-.72.08,1.51,1.51,0,0,1-.67-.33,1.4,1.4,0,0,1-.43-.61,1.32,1.32,0,0,1-.05-.71,1.56,1.56,0,0,1,.33-.67,1.5,1.5,0,0,1,.6-.42,1.2,1.2,0,0,1,.7-.05,1.56,1.56,0,0,1,.68.34Zm-1.92.85a.76.76,0,0,0,.2.51l1-1.18a.72.72,0,0,0-.53-.12.8.8,0,0,0-.48.28A.76.76,0,0,0,223.46,249.79Z" style="fill:#fff"></path><path d="M226.73,249.05a1.75,1.75,0,0,1-.49.25l-.22-.5a1.35,1.35,0,0,0,.43-.22,1.57,1.57,0,0,0,.38-.34c.24-.3.28-.51.13-.64a.21.21,0,0,0-.25,0,2.55,2.55,0,0,0-.38.29,3.7,3.7,0,0,1-.44.36,1,1,0,0,1-.41.14.66.66,0,0,1-.46-.18.73.73,0,0,1-.28-.64,1.47,1.47,0,0,1,.38-.83,3,3,0,0,1,.4-.4,1.44,1.44,0,0,1,.43-.24l.22.49a1.6,1.6,0,0,0-.65.48.94.94,0,0,0-.21.39.25.25,0,0,0,.08.25.22.22,0,0,0,.27,0,3.7,3.7,0,0,0,.4-.3,3.5,3.5,0,0,1,.43-.35.82.82,0,0,1,.4-.13.61.61,0,0,1,.45.16.74.74,0,0,1,.26.65,1.58,1.58,0,0,1-.39.85A2.56,2.56,0,0,1,226.73,249.05Z" style="fill:#fff"></path><path d="M228.9,242.31a1.22,1.22,0,0,1,.9.3l1.26.94-.39.51-1.19-.89a.82.82,0,0,0-.52-.2.57.57,0,0,0-.42.26.64.64,0,0,0-.14.54.85.85,0,0,0,.37.52l1.11.83-.39.51-1.19-.89a.75.75,0,0,0-.52-.19.56.56,0,0,0-.42.25.71.71,0,0,0-.15.54.87.87,0,0,0,.38.52l1.1.83-.38.52-2.19-1.64.37-.49.28.21a1,1,0,0,1,0-.48,1.37,1.37,0,0,1,.23-.47,1.39,1.39,0,0,1,.42-.36.89.89,0,0,1,.5-.1,1.14,1.14,0,0,1,0-.55,1.5,1.5,0,0,1,.26-.54A1.11,1.11,0,0,1,228.9,242.31Z" style="fill:#fff"></path><path d="M230.56,239.88a1.1,1.1,0,0,1,.9.23l1.32.9-.34.5-.27-.19a.78.78,0,0,1,0,.43,1.24,1.24,0,0,1-.22.49,1.29,1.29,0,0,1-.38.39,1,1,0,0,1-.45.13.81.81,0,0,1-.42-.14.72.72,0,0,1-.33-.56,1.39,1.39,0,0,1,.3-.84l.4-.58,0,0a.54.54,0,0,0-.46-.11.79.79,0,0,0-.42.33,1.59,1.59,0,0,0-.19.42,1.05,1.05,0,0,0-.05.42l-.53-.05a1.47,1.47,0,0,1,.09-.57,2.1,2.1,0,0,1,.29-.58A1.33,1.33,0,0,1,230.56,239.88Zm1.26,1.57a.51.51,0,0,0-.11-.39l-.26-.18-.37.54c-.21.31-.21.53,0,.67a.32.32,0,0,0,.3,0,.78.78,0,0,0,.45-.68Z" style="fill:#fff"></path><path d="M230.48,238.49a.34.34,0,0,1-.29-.05.37.37,0,0,1-.17-.24.49.49,0,0,1,.07-.31.43.43,0,0,1,.25-.19.32.32,0,0,1,.28.05.35.35,0,0,1,.18.25.44.44,0,0,1-.06.31A.43.43,0,0,1,230.48,238.49Zm.46.33.35-.54,2.3,1.48-.35.54Z" style="fill:#fff"></path><path d="M232.19,234.77l3.25,2-.31.52-.31-.18a.91.91,0,0,1,.05.49,1.22,1.22,0,0,1-.18.49,1.5,1.5,0,0,1-.51.52,1.35,1.35,0,0,1-.68.17,1.49,1.49,0,0,1-.72-.23,1.45,1.45,0,0,1-.54-.53,1.35,1.35,0,0,1-.17-.68,1.47,1.47,0,0,1,.22-.69,1.37,1.37,0,0,1,.33-.38,1.07,1.07,0,0,1,.44-.19l-1.2-.72Zm2.2,2.52a.8.8,0,0,0-.11-.4,1,1,0,0,0-.33-.33,1,1,0,0,0-.44-.14.8.8,0,0,0-.41.1.79.79,0,0,0-.3.3.9.9,0,0,0-.13.41.71.71,0,0,0,.11.4.87.87,0,0,0,.33.33,1,1,0,0,0,.44.14.83.83,0,0,0,.41-.1.86.86,0,0,0,.3-.3A.9.9,0,0,0,234.39,237.29Z" style="fill:#fff"></path></g></g></svg>